<svg width="1835" height="1835" xmlns="http://www.w3.org/2000/svg" clip-rule="evenodd" xml:space="preserve" version="1.1">

 <g>
  <title>Layer 1</title>
  <g id="svg_1" transform="matrix(1,0,0,1,-273.621,-509.404)">
   <g id="svg_2">
    <g id="svg_3" transform="matrix(1,0,0,1,-199.902,-92.5177)">
     <circle id="svg_4" fill="white" r="713.784" cy="1519.02" cx="1390.62"/>
     <path id="svg_5" fill="rgb(203,233,247)" d="m1392.1,601.923l1.47,0.003l1.47,0.006l1.49,0.008l1.47,0.011l1.47,0.013l1.47,0.015l1.48,0.017l1.47,0.02l1.48,0.022l1.47,0.025l1.47,0.027l1.47,0.029l1.47,0.031l1.47,0.034l1.47,0.036l1.47,0.039l1.47,0.04l1.47,0.044l1.47,0.045l1.46,0.048l1.46,0.05l1.47,0.052l1.47,0.055l1.47,0.057l1.46,0.059l1.46,0.061l1.47,0.064l1.46,0.066l1.46,0.069l1.47,0.071l1.45,0.072l1.46,0.076l1.47,0.077l1.46,0.081l1.46,0.082l1.45,0.084l1.47,0.087l1.45,0.089l1.46,0.091l1.46,0.094l1.45,0.096l1.46,0.098l1.45,0.1l1.46,0.103l1.45,0.105l1.46,0.108l1.45,0.109l1.46,0.112l1.44,0.114l1.46,0.116l1.45,0.119l1.45,0.121l1.45,0.123l1.45,0.126l1.44,0.127l1.45,0.13l1.45,0.133l1.45,0.134l1.44,0.136l1.45,0.139l1.45,0.142l1.44,0.143l1.44,0.145l1.45,0.149l1.44,0.15l1.44,0.152l1.45,0.155l1.44,0.157l1.44,0.159l1.43,0.161l1.45,0.164l1.44,0.166l1.43,0.168l1.44,0.17l1.43,0.172l1.44,0.175l1.44,0.177l1.44,0.18l1.42,0.181l1.44,0.183l1.44,0.187l1.42,0.187l1.43,0.19l1.44,0.193l1.43,0.195l1.43,0.196l1.43,0.2l1.43,0.201l1.42,0.203l1.43,0.206l1.43,0.208l1.42,0.21l1.43,0.212l1.42,0.215l1.43,0.217l1.42,0.219l1.42,0.221l1.42,0.222l1.42,0.226l1.43,0.228l1.42,0.23l1.41,0.231l1.42,0.234l1.42,0.236l1.42,0.239l1.42,0.242l1.41,0.242l1.41,0.244l1.42,0.247l1.41,0.25l1.41,0.251l1.42,0.255l1.4,0.255l1.42,0.258l1.41,0.261l1.4,0.261l1.41,0.265l1.41,0.267l1.41,0.269l1.41,0.27l1.4,0.273l1.4,0.274l1.41,0.278l1.41,0.281l1.4,0.281l1.4,0.283l1.4,0.287l1.4,0.288l1.39,0.289l1.41,0.293l1.39,0.294l1.4,0.296l1.4,0.3l1.4,0.3l1.39,0.303l1.39,0.304l1.4,0.308l1.39,0.309l1.39,0.311l1.4,0.315l1.38,0.315l1.39,0.317l1.39,0.32l1.39,0.322l1.39,0.324l1.38,0.326l1.39,0.329l1.39,0.33l1.38,0.332l1.38,0.334l1.38,0.337l1.39,0.339l1.38,0.341l1.38,0.342l1.38,0.345l1.37,0.347l1.38,0.348l1.38,0.354l1.38,0.353l1.37,0.354l1.37,0.357l1.38,0.36l1.37,0.361l1.37,0.363l1.37,0.367l1.38,0.368l1.36,0.369l1.37,0.372l1.37,0.373l1.36,0.377l1.38,0.379l1.36,0.379l1.36,0.381l1.37,0.386l1.36,0.386l1.36,0.387l1.36,0.392l1.36,0.391l1.36,0.393l1.36,0.399l1.36,0.398l1.35,0.4l1.36,0.403l1.35,0.404l1.36,0.407l1.35,0.409l1.35,0.41l1.35,0.412l1.36,0.416l1.35,0.417l1.34,0.418l1.35,0.42l1.35,0.423l1.34,0.424l1.35,0.428l1.34,0.429l1.35,0.43l1.34,0.433l1.34,0.435l1.34,0.438l1.34,0.438l1.34,0.44l1.34,0.442l1.33,0.446l1.34,0.447l1.34,0.449l1.33,0.451l1.33,0.45l1.34,0.457l1.33,0.456l1.33,0.458l1.33,0.462l1.33,0.463l1.33,0.465l1.32,0.466l1.33,0.468l1.32,0.471l1.33,0.472l1.32,0.475l1.32,0.475l1.32,0.479l1.32,0.481l1.32,0.481l1.32,0.485l1.32,0.486l1.32,0.49l1.31,0.49l1.31,0.49l1.32,0.494l1.31,0.496l1.31,0.499l1.31,0.5l1.31,0.501l1.31,0.504l1.3,0.504l1.31,0.509l1.31,0.51l1.31,0.511l1.3,0.512l1.3,0.516l1.31,0.52l1.29,0.517l1.3,0.52l1.3,0.524l1.3,0.526l1.3,0.526l1.29,0.526l1.3,0.532l1.3,0.536l1.28,0.532l1.29,0.534l1.3,0.541l1.29,0.54l1.29,0.542l1.29,0.545l1.28,0.546l1.28,0.545l1.29,0.55l1.29,0.553l1.28,0.551l1.28,0.555l1.28,0.56l1.28,0.559l1.28,0.561l1.27,0.561l1.28,0.565l1.28,0.568l1.28,0.569l1.27,0.569l1.27,0.57l1.27,0.576l1.27,0.577l1.27,0.578l1.27,0.58l1.26,0.578l1.27,0.584l1.27,0.586l1.26,0.588l1.27,0.589l1.25,0.59l1.26,0.591l1.27,0.596l1.26,0.597l1.26,0.599l1.25,0.599l1.25,0.601l1.26,0.603l1.25,0.606l1.26,0.609l1.25,0.608l1.25,0.61l1.24,0.612l1.25,0.617l1.25,0.618l1.24,0.615l1.25,0.62l1.25,0.623l1.24,0.624l1.24,0.625l1.24,0.627l1.24,0.631l1.24,0.631l1.23,0.632l1.24,0.635l1.23,0.636l1.24,0.641l1.23,0.637l1.23,0.64l1.23,0.646l1.23,0.643l1.23,0.647l1.23,0.652l1.23,0.651l1.22,0.653l1.22,0.653l1.22,0.654l1.23,0.661l1.22,0.66l1.22,0.66l1.21,0.661l1.22,0.668l1.22,0.668l1.21,0.667l1.21,0.669l1.22,0.673l1.21,0.678l1.21,0.671l1.2,0.676l1.21,0.681l1.21,0.679l1.21,0.684l1.2,0.686l1.21,0.685l1.2,0.687l1.2,0.692l1.2,0.693l1.19,0.69l1.2,0.694l1.2,0.698l1.2,0.701l1.19,0.699l1.19,0.701l1.19,0.704l1.19,0.702l1.2,0.712l1.18,0.708l1.18,0.705l1.2,0.718l1.19,0.716l1.17,0.713l1.18,0.712l1.18,0.722l1.19,0.724l1.17,0.719l1.18,0.728l1.18,0.726l1.17,0.725l1.18,0.73l1.17,0.732l1.17,0.734l1.17,0.735l1.17,0.734l1.16,0.735l1.18,0.744l1.16,0.742l1.16,0.738l1.16,0.746l1.17,0.75l1.17,0.75l1.15,0.748l1.16,0.749l1.16,0.755l1.15,0.754l1.15,0.755l1.16,0.759l1.15,0.758l1.15,0.764l1.15,0.765l1.15,0.763l1.15,0.766l1.14,0.767l1.15,0.772l1.14,0.771l1.15,0.775l1.14,0.775l1.13,0.772l1.14,0.78l1.14,0.78l1.13,0.781l1.14,0.786l1.14,0.785l1.12,0.782l1.13,0.788l1.14,0.793l1.13,0.791l1.12,0.794l1.13,0.797l1.12,0.79l1.12,0.798l1.13,0.804l1.12,0.798l1.12,0.803l1.12,0.809l1.12,0.806l1.11,0.802l1.11,0.809l1.12,0.813l1.11,0.813l1.11,0.815l1.11,0.814l1.11,0.822l1.11,0.817l1.1,0.818l1.11,0.823l1.1,0.822l1.1,0.828l1.1,0.825l1.1,0.83l1.1,0.832l1.1,0.832l1.09,0.834l1.1,0.833l1.08,0.832l1.1,0.841l1.09,0.845l1.09,0.837l1.08,0.843l1.1,0.85l1.08,0.845l1.08,0.843l1.08,0.849l1.08,0.851l1.08,0.856l1.08,0.852l1.08,0.856l1.07,0.857l1.08,0.857l1.07,0.865l1.07,0.863l1.07,0.862l1.07,0.862l1.07,0.867l1.07,0.871l1.06,0.868l1.06,0.866l1.07,0.878l1.06,0.875l1.05,0.872l1.07,0.883l1.05,0.879l1.05,0.875l1.06,0.888l1.06,0.887l1.04,0.878l1.05,0.885l1.05,0.89l1.05,0.888l1.05,0.897l1.05,0.893l1.04,0.893l1.04,0.898l1.04,0.891l1.04,0.901l1.04,0.907l1.04,0.9l1.03,0.898l1.03,0.903l1.03,0.91l1.04,0.911l1.03,0.912l1.02,0.907l1.03,0.91l1.03,0.917l1.02,0.919l1.03,0.92l1.01,0.911l1.02,0.918l1.03,0.93l1.02,0.924l1,0.914l1.01,0.927l1.03,0.936l1.01,0.93l1.01,0.928l1.01,0.933l1,0.931l1,0.93l1.02,0.945l1,0.939l1,0.937l1,0.941l0.99,0.938l1.01,0.95l0.99,0.943l0.99,0.947l1,0.949l0.99,0.948l0.99,0.957l0.99,0.953l0.99,0.952l0.98,0.954l0.99,0.957l0.98,0.957l0.98,0.963l0.98,0.959l0.98,0.964l0.98,0.968l0.98,0.966l0.97,0.968l0.97,0.966l0.98,0.974l0.97,0.969l0.96,0.971l0.97,0.978l0.97,0.976l0.96,0.972l0.97,0.983l0.96,0.981l0.96,0.982l0.96,0.984l0.95,0.982l0.96,0.989l0.96,0.988l0.95,0.99l0.95,0.988l0.95,0.992l0.95,0.994l0.94,0.989l0.94,0.996l0.96,1.004l0.94,1l0.94,0.997l0.94,1.002l0.94,1.007l0.93,0.999l0.93,1.007l0.94,1.014l0.93,1.003l0.93,1.007l0.93,1.018l0.93,1.014l0.93,1.012l0.92,1.016l0.92,1.014l0.92,1.016l0.92,1.021l0.93,1.028l0.92,1.026l0.91,1.019l0.91,1.025l0.92,1.027l0.9,1.023l0.91,1.033l0.92,1.035l0.9,1.03l0.91,1.034l0.9,1.036l0.9,1.033l0.9,1.042l0.9,1.04l0.9,1.038l0.89,1.039l0.9,1.047l0.89,1.045l0.89,1.043l0.89,1.048l0.89,1.05l0.89,1.053l0.89,1.052l0.88,1.05l0.88,1.055l0.88,1.056l0.88,1.051l0.88,1.065l0.88,1.063l0.87,1.055l0.87,1.06l0.87,1.064l0.87,1.072l0.87,1.067l0.86,1.061l0.87,1.069l0.86,1.071l0.87,1.076l0.86,1.07l0.86,1.075l0.85,1.075l0.86,1.075l0.85,1.078l0.85,1.077l0.86,1.085l0.85,1.082l0.85,1.091l0.84,1.079l0.84,1.083l0.85,1.094l0.84,1.086l0.84,1.087l0.83,1.086l0.84,1.096l0.84,1.101l0.83,1.092l0.83,1.098l0.84,1.102l0.82,1.096l0.83,1.094l0.82,1.105l0.83,1.107l0.82,1.098l0.82,1.11l0.82,1.107l0.81,1.102l0.82,1.113l0.82,1.112l0.81,1.108l0.81,1.114l0.81,1.123l0.81,1.116l0.8,1.11l0.81,1.122l0.8,1.118l0.8,1.121l0.8,1.123l0.8,1.123l0.8,1.125l0.79,1.116l0.79,1.135l0.8,1.137l0.78,1.122l0.79,1.131l0.79,1.13l0.79,1.138l0.78,1.135l0.78,1.136l0.78,1.14l0.78,1.13l0.77,1.14l0.78,1.15l0.77,1.13l0.77,1.14l0.77,1.15l0.78,1.16l0.76,1.15l0.76,1.14l0.77,1.15l0.75,1.14l0.77,1.16l0.76,1.16l0.75,1.14l0.76,1.17l0.75,1.15l0.75,1.15l0.75,1.17l0.75,1.16l0.75,1.16l0.74,1.16l0.74,1.16l0.75,1.18l0.74,1.17l0.73,1.15l0.74,1.18l0.73,1.17l0.73,1.16l0.74,1.18l0.73,1.18l0.72,1.17l0.73,1.17l0.73,1.19l0.72,1.17l0.72,1.18l0.72,1.19l0.72,1.18l0.71,1.18l0.71,1.18l0.72,1.19l0.71,1.19l0.71,1.19l0.7,1.18l0.71,1.2l0.7,1.18l0.7,1.2l0.71,1.2l0.69,1.18l0.7,1.21l0.69,1.19l0.69,1.19l0.7,1.21l0.69,1.21l0.69,1.19l0.68,1.2l0.69,1.21l0.68,1.21l0.68,1.2l0.68,1.2l0.68,1.23l0.67,1.2l0.67,1.21l0.68,1.22l0.67,1.21l0.67,1.21l0.66,1.22l0.67,1.22l0.66,1.21l0.66,1.22l0.66,1.22l0.66,1.22l0.66,1.23l0.65,1.22l0.65,1.22l0.66,1.23l0.65,1.23l0.64,1.23l0.65,1.23l0.64,1.23l0.64,1.22l0.65,1.24l0.63,1.23l0.64,1.24l0.64,1.24l0.62,1.23l0.63,1.23l0.64,1.25l0.62,1.24l0.63,1.24l0.62,1.25l0.63,1.24l0.62,1.24l0.61,1.24l0.62,1.25l0.61,1.26l0.61,1.24l0.62,1.25l0.61,1.26l0.6,1.25l0.61,1.25l0.6,1.25l0.6,1.25l0.6,1.26l0.6,1.27l0.6,1.26l0.59,1.25l0.59,1.26l0.6,1.26l0.58,1.27l0.6,1.27l0.58,1.25l0.58,1.27l0.58,1.27l0.58,1.27l0.58,1.27l0.57,1.26l0.58,1.28l0.57,1.27l0.57,1.27l0.57,1.28l0.57,1.28l0.56,1.27l0.56,1.28l0.57,1.28l0.55,1.28l0.56,1.28l0.56,1.28l0.55,1.29l0.55,1.28l0.55,1.27l0.55,1.3l0.55,1.29l0.54,1.28l0.54,1.28l0.54,1.3l0.54,1.29l0.54,1.3l0.53,1.29l0.53,1.29l0.54,1.3l0.52,1.29l0.53,1.29l0.52,1.31l0.53,1.3l0.52,1.3l0.52,1.29l0.52,1.31l0.51,1.3l0.51,1.3l0.52,1.31l0.51,1.31l0.5,1.3l0.5,1.3l0.51,1.31l0.51,1.32l0.49,1.31l0.5,1.3l0.5,1.32l0.49,1.32l0.49,1.31l0.49,1.31l0.49,1.32l0.49,1.32l0.48,1.32l0.48,1.32l0.48,1.32l0.48,1.31l0.48,1.33l0.47,1.32l0.48,1.33l0.47,1.32l0.46,1.33l0.47,1.33l0.46,1.32l0.47,1.32l0.46,1.34l0.46,1.33l0.45,1.33l0.46,1.34l0.45,1.33l0.45,1.33l0.45,1.34l0.45,1.33l0.44,1.34l0.45,1.34l0.44,1.34l0.43,1.33l0.44,1.35l0.44,1.35l0.43,1.33l0.43,1.34l0.43,1.35l0.43,1.35l0.42,1.34l0.42,1.35l0.42,1.35l0.42,1.34l0.42,1.35l0.41,1.36l0.42,1.35l0.41,1.35l0.41,1.35l0.4,1.36l0.4,1.34l0.41,1.36l0.4,1.37l0.4,1.36l0.39,1.35l0.4,1.35l0.39,1.36l0.39,1.37l0.39,1.36l0.39,1.36l0.38,1.36l0.38,1.37l0.39,1.37l0.37,1.36l0.38,1.36l0.37,1.38l0.38,1.38l0.36,1.35l0.37,1.37l0.37,1.38l0.36,1.37l0.36,1.37l0.36,1.38l0.36,1.37l0.35,1.37l0.36,1.38l0.35,1.37l0.35,1.39l0.35,1.38l0.34,1.38l0.34,1.37l0.34,1.37l0.34,1.39l0.34,1.39l0.33,1.38l0.33,1.38l0.34,1.39l0.32,1.38l0.33,1.39l0.32,1.39l0.33,1.39l0.31,1.38l0.32,1.39l0.32,1.4l0.31,1.38l0.31,1.4l0.31,1.4l0.31,1.38l0.3,1.4l0.31,1.39l0.3,1.4l0.3,1.4l0.29,1.39l0.3,1.4l0.29,1.4l0.29,1.4l0.29,1.4l0.29,1.41l0.28,1.4l0.28,1.39l0.28,1.4l0.28,1.41l0.27,1.41l0.28,1.41l0.27,1.4l0.26,1.4l0.27,1.41l0.27,1.41l0.26,1.41l0.26,1.41l0.26,1.41l0.25,1.42l0.26,1.41l0.25,1.41l0.25,1.41l0.24,1.41l0.25,1.42l0.24,1.42l0.24,1.41l0.24,1.41l0.24,1.43l0.23,1.41l0.23,1.43l0.23,1.42l0.23,1.41l0.22,1.42l0.23,1.42l0.22,1.43l0.22,1.42l0.21,1.43l0.22,1.42l0.21,1.42l0.21,1.44l0.21,1.42l0.2,1.42l0.21,1.43l0.2,1.44l0.2,1.43l0.2,1.41l0.19,1.45l0.19,1.42l0.19,1.42l0.19,1.45l0.19,1.43l0.18,1.43l0.18,1.44l0.18,1.43l0.18,1.44l0.17,1.43l0.17,1.43l0.18,1.45l0.16,1.43l0.17,1.44l0.16,1.44l0.16,1.44l0.16,1.45l0.16,1.43l0.15,1.44l0.16,1.45l0.15,1.45l0.15,1.43l0.14,1.44l0.14,1.45l0.15,1.45l0.13,1.45l0.14,1.44l0.14,1.45l0.13,1.45l0.13,1.44l0.12,1.44l0.13,1.45l0.13,1.47l0.12,1.45l0.11,1.44l0.12,1.45l0.11,1.46l0.12,1.44l0.11,1.45l0.1,1.47l0.11,1.45l0.1,1.45l0.1,1.45l0.1,1.47l0.09,1.46l0.1,1.44l0.09,1.46l0.09,1.47l0.09,1.45l0.08,1.46l0.08,1.47l0.08,1.46l0.08,1.44l0.08,1.47l0.07,1.47l0.07,1.45l0.07,1.47l0.06,1.47l0.07,1.45l0.06,1.47l0.06,1.47l0.06,1.45l0.05,1.47l0.05,1.47l0.05,1.47l0.05,1.47l0.05,1.47l0.04,1.46l0.04,1.47l0.04,1.47l0.03,1.47l0.04,1.48l0.03,1.46l0.03,1.46l0.03,1.49l0.02,1.47l0.02,1.47l0.02,1.47l0.02,1.47l0.01,1.47l0.02,1.49l0.01,1.46l0.01,1.48l0,1.48l0.01,1.47l0,1.48l0,1.48l-0.01,1.47l0,1.48l-0.01,1.47l-0.01,1.47l-0.02,1.49l-0.01,1.47l-0.02,1.47l-0.02,1.47l-0.02,1.46l-0.02,1.48l-0.03,1.48l-0.03,1.47l-0.03,1.46l-0.04,1.47l-0.03,1.48l-0.04,1.47l-0.04,1.46l-0.04,1.47l-0.05,1.47l-0.05,1.47l-0.05,1.46l-0.05,1.47l-0.05,1.47l-0.06,1.45l-0.06,1.48l-0.06,1.47l-0.07,1.44l-0.06,1.48l-0.07,1.47l-0.07,1.44l-0.07,1.47l-0.08,1.47l-0.08,1.45l-0.08,1.46l-0.08,1.47l-0.08,1.45l-0.09,1.46l-0.09,1.47l-0.09,1.46l-0.1,1.44l-0.09,1.46l-0.1,1.46l-0.1,1.46l-0.1,1.44l-0.11,1.46l-0.1,1.46l-0.11,1.46l-0.12,1.44l-0.11,1.45l-0.12,1.45l-0.11,1.45l-0.12,1.45l-0.13,1.46l-0.13,1.46l-0.12,1.43l-0.13,1.45l-0.13,1.45l-0.14,1.45l-0.14,1.44l-0.13,1.45l-0.15,1.45l-0.14,1.45l-0.14,1.43l-0.15,1.44l-0.15,1.45l-0.16,1.45l-0.15,1.43l-0.16,1.44l-0.16,1.45l-0.16,1.43l-0.16,1.45l-0.17,1.43l-0.16,1.44l-0.18,1.44l-0.17,1.44l-0.17,1.43l-0.18,1.43l-0.18,1.43l-0.18,1.45l-0.18,1.43l-0.19,1.43l-0.19,1.44l-0.19,1.42l-0.19,1.43l-0.19,1.44l-0.2,1.42l-0.2,1.43l-0.2,1.44l-0.21,1.43l-0.2,1.41l-0.21,1.43l-0.21,1.44l-0.21,1.41l-0.22,1.43l-0.21,1.42l-0.22,1.42l-0.22,1.44l-0.23,1.42l-0.22,1.41l-0.23,1.42l-0.23,1.42l-0.23,1.42l-0.23,1.42l-0.24,1.42l-0.24,1.42l-0.24,1.4l-0.24,1.42l-0.25,1.43l-0.24,1.4l-0.25,1.42l-0.25,1.41l-0.26,1.41l-0.25,1.41l-0.26,1.42l-0.26,1.41l-0.26,1.4l-0.27,1.42l-0.27,1.4l-0.26,1.41l-0.27,1.4l-0.28,1.4l-0.27,1.41l-0.28,1.42l-0.28,1.4l-0.28,1.39l-0.28,1.4l-0.29,1.41l-0.29,1.4l-0.29,1.4l-0.29,1.4l-0.3,1.39l-0.29,1.4l-0.3,1.4l-0.3,1.39l-0.31,1.4l-0.3,1.39l-0.31,1.39l-0.31,1.39l-0.31,1.41l-0.31,1.38l-0.32,1.39l-0.32,1.39l-0.31,1.39l-0.33,1.38l-0.32,1.39l-0.33,1.4l-0.32,1.37l-0.34,1.39l-0.33,1.39l-0.33,1.38l-0.34,1.39l-0.34,1.38l-0.34,1.38l-0.34,1.37l-0.34,1.38l-0.35,1.38l-0.35,1.38l-0.35,1.38l-0.36,1.38l-0.35,1.37l-0.36,1.37l-0.36,1.38l-0.36,1.37l-0.36,1.37l-0.37,1.38l-0.37,1.37l-0.36,1.35l-0.38,1.38l-0.37,1.38l-0.38,1.36l-0.37,1.35l-0.39,1.37l-0.38,1.37l-0.38,1.36l-0.39,1.37l-0.39,1.36l-0.39,1.36l-0.39,1.36l-0.4,1.36l-0.39,1.35l-0.4,1.36l-0.4,1.37l-0.41,1.35l-0.4,1.35l-0.4,1.36l-0.41,1.35l-0.41,1.34l-0.42,1.36l-0.41,1.35l-0.42,1.35l-0.42,1.35l-0.42,1.35l-0.42,1.35l-0.42,1.34l-0.43,1.35l-0.43,1.35l-0.43,1.33l-0.43,1.34l-0.44,1.35l-0.44,1.35l-0.43,1.33l-0.44,1.33l-0.45,1.35l-0.44,1.33l-0.45,1.33l-0.45,1.35l-0.45,1.33l-0.45,1.33l-0.46,1.33l-0.45,1.33l-0.46,1.33l-0.46,1.34l-0.47,1.33l-0.46,1.31l-0.47,1.34l-0.46,1.33l-0.47,1.32l-0.48,1.32l-0.47,1.32l-0.48,1.34l-0.48,1.31l-0.48,1.32l-0.48,1.32l-0.48,1.32l-0.49,1.31l-0.49,1.33l-0.49,1.31l-0.49,1.3l-0.49,1.32l-0.5,1.33l-0.5,1.3l-0.49,1.3l-0.51,1.32l-0.5,1.31l-0.51,1.31l-0.5,1.3l-0.51,1.3l-0.52,1.32l-0.51,1.29l-0.51,1.31l-0.52,1.31l-0.52,1.29l-0.52,1.3l-0.53,1.3l-0.52,1.31l-0.53,1.29l-0.52,1.29l-0.54,1.3l-0.53,1.29l-0.53,1.29l-0.54,1.29l-0.54,1.3l-0.54,1.29l-0.54,1.28l-0.54,1.29l-0.55,1.29l-0.55,1.29l-0.55,1.28l-0.55,1.28l-0.55,1.29l-0.56,1.28l-0.56,1.28l-0.55,1.28l-0.57,1.28l-0.56,1.27l-0.56,1.28l-0.57,1.28l-0.57,1.27l-0.57,1.27l-0.57,1.28l-0.58,1.27l-0.57,1.27l-0.58,1.27l-0.58,1.27l-0.58,1.26l-0.58,1.27l-0.58,1.26l-0.59,1.27l-0.59,1.26l-0.6,1.27l-0.59,1.25l-0.59,1.25l-0.6,1.27l-0.6,1.26l-0.6,1.26l-0.6,1.25l-0.6,1.26l-0.61,1.25l-0.6,1.25l-0.61,1.25l-0.62,1.26l-0.61,1.24l-0.61,1.25l-0.62,1.25l-0.61,1.24l-0.63,1.25l-0.62,1.24l-0.62,1.24l-0.63,1.25l-0.62,1.24l-0.64,1.24l-0.63,1.24l-0.62,1.22l-0.64,1.25l-0.64,1.23l-0.63,1.23l-0.65,1.25l-0.64,1.22l-0.64,1.23l-0.65,1.23l-0.64,1.22l-0.65,1.23l-0.66,1.23l-0.65,1.23l-0.65,1.22l-0.66,1.22l-0.66,1.23l-0.66,1.22l-0.66,1.21l-0.66,1.22l-0.67,1.22l-0.66,1.21l-0.67,1.22l-0.67,1.21l-0.68,1.22l-0.67,1.21l-0.67,1.2l-0.68,1.22l-0.68,1.2l-0.68,1.2l-0.68,1.22l-0.69,1.21l-0.68,1.19l-0.69,1.2l-0.69,1.21l-0.7,1.2l-0.69,1.2l-0.69,1.19l-0.7,1.2l-0.69,1.19l-0.71,1.2l-0.7,1.2l-0.7,1.18l-0.71,1.19l-0.7,1.19l-0.71,1.19l-0.71,1.19l-0.72,1.19l-0.7,1.17l-0.72,1.18l-0.72,1.19l-0.72,1.19l-0.72,1.18l-0.72,1.17l-0.73,1.18l-0.73,1.18l-0.72,1.17l-0.73,1.17l-0.74,1.18l-0.73,1.17l-0.73,1.16l-0.74,1.19l-0.74,1.16l-0.73,1.16l-0.75,1.18l-0.74,1.16l-0.74,1.15l-0.75,1.16l-0.75,1.17l-0.75,1.17l-0.75,1.14l-0.75,1.16l-0.76,1.16l-0.75,1.15l-0.76,1.16l-0.77,1.16l-0.75,1.14l-0.77,1.15l-0.76,1.14l-0.76,1.15l-0.78,1.15l-0.77,1.15l-0.77,1.14l-0.77,1.14l-0.78,1.14l-0.78,1.15l-0.77,1.12l-0.78,1.15l-0.78,1.13l-0.78,1.14l-0.79,1.14l-0.79,1.13l-0.79,1.13l-0.78,1.12l-0.8,1.13l-0.79,1.14l-0.79,1.12l-0.8,1.12l-0.79,1.12l-0.81,1.13l-0.8,1.12l-0.8,1.12l-0.81,1.12l-0.8,1.11l-0.8,1.11l-0.82,1.12l-0.81,1.12l-0.81,1.11l-0.82,1.11l-0.81,1.11l-0.82,1.11l-0.82,1.11l-0.82,1.1l-0.82,1.1l-0.83,1.11l-0.82,1.1l-0.83,1.1l-0.82,1.09l-0.84,1.11l-0.83,1.1l-0.83,1.09l-0.84,1.09l-0.83,1.1l-0.84,1.09l-0.84,1.09l-0.84,1.08l-0.85,1.09l-0.84,1.09l-0.84,1.08l-0.85,1.08l-0.85,1.09l-0.86,1.09l-0.85,1.07l-0.85,1.08l-0.86,1.08l-0.85,1.07l-0.86,1.07l-0.86,1.08l-0.87,1.08l-0.86,1.06l-0.87,1.07l-0.86,1.06l-0.87,1.07l-0.87,1.07l-0.87,1.06l-0.88,1.07l-0.86,1.05l-0.88,1.06l-0.88,1.07l-0.88,1.05l-0.88,1.06l-0.89,1.06l-0.88,1.04l-0.88,1.05l-0.89,1.05l-0.89,1.06l-0.89,1.04l-0.88,1.04l-0.9,1.05l-0.9,1.05l-0.89,1.04l-0.89,1.03l-0.91,1.05l-0.9,1.04l-0.9,1.03l-0.9,1.04l-0.9,1.02l-0.91,1.04l-0.92,1.04l-0.91,1.03l-0.91,1.02l-0.9,1.03l-0.92,1.02l-0.91,1.02l-0.93,1.03l-0.92,1.03l-0.91,1.01l-0.92,1.02l-0.93,1.02l-0.92,1.01l-0.92,1.01l-0.94,1.02l-0.93,1.02l-0.93,1l-0.93,1.01l-0.94,1.01l-0.93,1l-0.93,1.01l-0.95,1.01l-0.94,1l-0.93,0.99l-0.94,1l-0.96,1.01l-0.94,0.99l-0.94,0.99l-0.95,1l-0.95,0.99l-0.95,0.99l-0.96,0.99l-0.95,0.99l-0.96,0.98l-0.95,0.98l-0.96,0.99l-0.96,0.98l-0.96,0.98l-0.96,0.98l-0.97,0.98l-0.97,0.97l-0.97,0.98l-0.97,0.98l-0.96,0.96l-0.98,0.98l-0.96,0.96l-0.98,0.97l-0.98,0.97l-0.98,0.96l-0.97,0.96l-0.98,0.96l-0.99,0.97l-0.99,0.96l-0.98,0.96l-0.98,0.95l-0.99,0.95l-0.99,0.96l-0.99,0.95l-0.99,0.95l-1,0.95l-0.98,0.94l-1,0.94l-1.01,0.96l-0.99,0.94l-1,0.93l-1,0.94l-1,0.94l-1.02,0.94l-1,0.94l-1.01,0.93l-1,0.93l-1.01,0.93l-1.02,0.93l-1.02,0.93l-1,0.92l-1.01,0.92l-1.03,0.93l-1.02,0.93l-1.01,0.91l-1.02,0.92l-1.03,0.92l-1.03,0.92l-1.02,0.91l-1.02,0.91l-1.03,0.91l-1.03,0.91l-1.04,0.91l-1.03,0.91l-1.04,0.91l-1.03,0.9l-1.03,0.89l-1.04,0.91l-1.05,0.91l-1.03,0.88l-1.04,0.9l-1.05,0.9l-1.04,0.89l-1.04,0.89l-1.05,0.89l-1.06,0.89l-1.05,0.89l-1.05,0.88l-1.04,0.88l-1.06,0.89l-1.06,0.88l-1.05,0.87l-1.07,0.89l-1.06,0.87l-1.05,0.87l-1.07,0.88l-1.06,0.87l-1.07,0.87l-1.07,0.87l-1.06,0.86l-1.07,0.87l-1.06,0.86l-1.08,0.86l-1.08,0.87l-1.06,0.85l-1.08,0.86l-1.09,0.86l-1.06,0.85l-1.08,0.85l-1.09,0.86l-1.08,0.85l-1.09,0.84l-1.08,0.85l-1.08,0.84l-1.1,0.85l-1.08,0.83l-1.09,0.85l-1.09,0.83l-1.09,0.84l-1.1,0.84l-1.09,0.83l-1.1,0.83l-1.1,0.83l-1.1,0.83l-1.1,0.83l-1.1,0.82l-1.1,0.82l-1.11,0.83l-1.1,0.82l-1.1,0.81l-1.12,0.83l-1.11,0.82l-1.11,0.81l-1.1,0.8l-1.12,0.82l-1.13,0.81l-1.11,0.81l-1.11,0.8l-1.12,0.81l-1.12,0.8l-1.12,0.8l-1.13,0.8l-1.11,0.8l-1.13,0.79l-1.13,0.8l-1.12,0.79l-1.14,0.8l-1.12,0.78l-1.13,0.79l-1.13,0.78l-1.14,0.79l-1.14,0.79l-1.13,0.78l-1.15,0.78l-1.12,0.77l-1.14,0.78l-1.15,0.78l-1.14,0.77l-1.13,0.77l-1.16,0.77l-1.15,0.77l-1.15,0.77l-1.14,0.76l-1.15,0.76l-1.15,0.76l-1.15,0.77l-1.16,0.75l-1.15,0.76l-1.15,0.75l-1.16,0.76l-1.16,0.75l-1.16,0.75l-1.17,0.75l-1.16,0.75l-1.15,0.74l-1.16,0.74l-1.18,0.75l-1.17,0.74l-1.15,0.73l-1.18,0.74l-1.17,0.73l-1.17,0.73l-1.17,0.74l-1.18,0.73l-1.17,0.72l-1.18,0.73l-1.18,0.72l-1.17,0.72l-1.18,0.72l-1.19,0.73l-1.18,0.71l-1.18,0.72l-1.19,0.71l-1.18,0.71l-1.19,0.72l-1.19,0.7l-1.19,0.71l-1.19,0.71l-1.18,0.7l-1.19,0.7l-1.21,0.7l-1.19,0.7l-1.2,0.7l-1.19,0.69l-1.19,0.69l-1.21,0.7l-1.21,0.69l-1.19,0.68l-1.2,0.69l-1.22,0.69l-1.2,0.68l-1.21,0.68l-1.21,0.68l-1.19,0.67l-1.22,0.68l-1.21,0.67l-1.21,0.67l-1.22,0.68l-1.21,0.66l-1.23,0.68l-1.21,0.66l-1.21,0.66l-1.23,0.66l-1.23,0.67l-1.21,0.65l-1.22,0.66l-1.21,0.64l-1.23,0.66l-1.24,0.66l-1.2,0.64l-1.24,0.65l-1.24,0.65l-1.22,0.64l-1.24,0.64l-1.24,0.65l-1.23,0.63l-1.22,0.63l-1.25,0.64l-1.24,0.64l-1.24,0.63l-1.23,0.62l-1.23,0.63l-1.25,0.63l-1.25,0.62l-1.23,0.62l-1.26,0.62l-1.24,0.62l-1.24,0.61l-1.26,0.62l-1.25,0.62l-1.25,0.61l-1.24,0.6l-1.26,0.61l-1.26,0.61l-1.24,0.6l-1.25,0.6l-1.26,0.6l-1.27,0.6l-1.26,0.6l-1.25,0.59l-1.26,0.59l-1.28,0.6l-1.25,0.58l-1.25,0.58l-1.29,0.6l-1.26,0.58l-1.25,0.58l-1.27,0.58l-1.27,0.58l-1.27,0.57l-1.28,0.58l-1.29,0.58l-1.27,0.57l-1.26,0.56l-1.28,0.57l-1.28,0.56l-1.27,0.56l-1.28,0.56l-1.28,0.56l-1.28,0.56l-1.28,0.55l-1.28,0.56l-1.29,0.55l-1.28,0.55l-1.28,0.54l-1.3,0.56l-1.29,0.54l-1.29,0.54l-1.28,0.54l-1.29,0.54l-1.29,0.53l-1.29,0.53l-1.31,0.54l-1.29,0.53l-1.29,0.53l-1.29,0.52l-1.3,0.53l-1.31,0.53l-1.3,0.52l-1.29,0.51l-1.32,0.53l-1.29,0.51l-1.3,0.51l-1.3,0.51l-1.32,0.51l-1.3,0.51l-1.3,0.5l-1.32,0.51l-1.31,0.5l-1.32,0.5l-1.3,0.5l-1.31,0.49l-1.32,0.5l-1.31,0.49l-1.3,0.48l-1.33,0.5l-1.33,0.49l-1.31,0.48l-1.31,0.48l-1.33,0.48l-1.33,0.48l-1.32,0.48l-1.3,0.47l-1.34,0.47l-1.33,0.48l-1.32,0.46l-1.31,0.47l-1.34,0.46l-1.34,0.47l-1.31,0.45l-1.34,0.47l-1.34,0.45l-1.32,0.46l-1.34,0.45l-1.34,0.45l-1.32,0.45l-1.35,0.45l-1.34,0.44l-1.33,0.44l-1.34,0.44l-1.34,0.44l-1.33,0.44l-1.35,0.43l-1.34,0.44l-1.35,0.43l-1.35,0.43l-1.33,0.42l-1.35,0.43l-1.35,0.42l-1.35,0.42l-1.35,0.42l-1.35,0.42l-1.34,0.41l-1.35,0.41l-1.38,0.42l-1.33,0.4l-1.34,0.41l-1.38,0.41l-1.35,0.4l-1.34,0.39l-1.38,0.41l-1.36,0.4l-1.34,0.38l-1.36,0.4l-1.38,0.39l-1.36,0.39l-1.36,0.39l-1.37,0.38l-1.34,0.38l-1.36,0.38l-1.39,0.38l-1.36,0.38l-1.37,0.37l-1.37,0.37l-1.36,0.37l-1.37,0.37l-1.37,0.36l-1.39,0.37l-1.37,0.36l-1.37,0.36l-1.37,0.36l-1.37,0.35l-1.39,0.36l-1.38,0.35l-1.35,0.34l-1.39,0.35l-1.4,0.35l-1.35,0.34l-1.4,0.34l-1.37,0.34l-1.38,0.33l-1.4,0.34l-1.37,0.33l-1.38,0.33l-1.4,0.33l-1.4,0.33l-1.36,0.32l-1.38,0.32l-1.4,0.32l-1.41,0.32l-1.38,0.32l-1.38,0.31l-1.4,0.31l-1.39,0.31l-1.38,0.31l-1.41,0.3l-1.4,0.31l-1.39,0.29l-1.39,0.3l-1.41,0.3l-1.4,0.3l-1.39,0.29l-1.41,0.29l-1.41,0.29l-1.37,0.28l-1.41,0.28l-1.41,0.29l-1.39,0.28l-1.41,0.27l-1.42,0.28l-1.39,0.27l-1.41,0.27l-1.42,0.27l-1.39,0.27l-1.42,0.26l-1.41,0.27l-1.4,0.25l-1.42,0.26l-1.41,0.26l-1.4,0.25l-1.42,0.25l-1.41,0.25l-1.43,0.25l-1.39,0.24l-1.42,0.25l-1.42,0.24l-1.42,0.24l-1.43,0.24l-1.4,0.23l-1.42,0.23l-1.42,0.23l-1.43,0.23l-1.42,0.22l-1.42,0.23l-1.43,0.22l-1.42,0.22l-1.41,0.21l-1.42,0.21l-1.45,0.22l-1.41,0.21l-1.42,0.21l-1.45,0.21l-1.41,0.19l-1.43,0.21l-1.43,0.2l-1.43,0.19l-1.45,0.2l-1.41,0.19l-1.43,0.19l-1.45,0.19l-1.43,0.19l-1.41,0.18l-1.43,0.18l-1.46,0.18l-1.43,0.18l-1.43,0.17l-1.46,0.18l-1.43,0.16l-1.41,0.17l-1.44,0.17l-1.46,0.16l-1.45,0.16l-1.42,0.16l-1.43,0.16l-1.46,0.15l-1.44,0.16l-1.44,0.15l-1.46,0.14l-1.43,0.15l-1.44,0.14l-1.44,0.14l-1.44,0.14l-1.48,0.14l-1.44,0.13l-1.42,0.13l-1.46,0.14l-1.46,0.12l-1.45,0.13l-1.44,0.12l-1.44,0.12l-1.46,0.12l-1.47,0.12l-1.44,0.11l-1.44,0.11l-1.47,0.11l-1.44,0.11l-1.44,0.1l-1.49,0.11l-1.45,0.1l-1.44,0.1l-1.47,0.09l-1.44,0.1l-1.47,0.09l-1.47,0.09l-1.45,0.08l-1.44,0.09l-1.47,0.08l-1.47,0.08l-1.45,0.08l-1.47,0.07l-1.46,0.08l-1.45,0.07l-1.47,0.07l-1.47,0.06l-1.45,0.06l-1.47,0.07l-1.47,0.06l-1.45,0.05l-1.48,0.06l-1.47,0.05l-1.47,0.05l-1.47,0.05l-1.45,0.04l-1.45,0.05l-1.5,0.04l-1.47,0.04l-1.45,0.03l-1.48,0.04l-1.47,0.03l-1.47,0.03l-1.48,0.02l-1.47,0.03l-1.46,0.02l-1.47,0.02l-1.5,0.02l-1.45,0.01l-1.48,0.02l-1.5,0.01l-1.45,0l-1.48,0.01l-1.47,0l-1.48,0l-1.48,0l-1.47,0l-1.48,-0.01l-1.45,0l-1.5,-0.01l-1.48,-0.02l-1.45,-0.01l-1.5,-0.02l-1.47,-0.02l-1.46,-0.02l-1.47,-0.03l-1.48,-0.02l-1.47,-0.03l-1.47,-0.03l-1.48,-0.04l-1.45,-0.03l-1.47,-0.04l-1.5,-0.04l-1.45,-0.05l-1.45,-0.04l-1.47,-0.05l-1.47,-0.05l-1.47,-0.05l-1.48,-0.06l-1.45,-0.05l-1.47,-0.06l-1.47,-0.07l-1.45,-0.06l-1.47,-0.06l-1.47,-0.07l-1.45,-0.07l-1.47,-0.08l-1.46,-0.07l-1.45,-0.08l-1.47,-0.08l-1.47,-0.08l-1.45,-0.09l-1.44,-0.08l-1.47,-0.09l-1.47,-0.09l-1.44,-0.1l-1.47,-0.09l-1.44,-0.1l-1.45,-0.1l-1.49,-0.11l-1.44,-0.1l-1.44,-0.11l-1.47,-0.11l-1.44,-0.11l-1.44,-0.11l-1.47,-0.12l-1.46,-0.12l-1.44,-0.12l-1.44,-0.12l-1.45,-0.13l-1.46,-0.12l-1.46,-0.14l-1.42,-0.13l-1.44,-0.13l-1.48,-0.14l-1.44,-0.14l-1.44,-0.14l-1.44,-0.14l-1.43,-0.15l-1.46,-0.14l-1.44,-0.15l-1.44,-0.16l-1.46,-0.15l-1.43,-0.16l-1.42,-0.16l-1.45,-0.16l-1.46,-0.16l-1.44,-0.17l-1.41,-0.17l-1.43,-0.16l-1.46,-0.18l-1.43,-0.17l-1.43,-0.18l-1.46,-0.18l-1.43,-0.18l-1.41,-0.18l-1.43,-0.19l-1.45,-0.19l-1.43,-0.19l-1.41,-0.19l-1.45,-0.2l-1.43,-0.19l-1.43,-0.2l-1.43,-0.21l-1.41,-0.19l-1.45,-0.21l-1.42,-0.21l-1.41,-0.21l-1.45,-0.22l-1.42,-0.21l-1.41,-0.21l-1.42,-0.22l-1.43,-0.22l-1.42,-0.23l-1.42,-0.22l-1.43,-0.23l-1.42,-0.23l-1.42,-0.23l-1.4,-0.23l-1.43,-0.24l-1.42,-0.24l-1.42,-0.24l-1.42,-0.25l-1.4,-0.24l-1.41,-0.25l-1.42,-0.25l-1.42,-0.25l-1.4,-0.25l-1.41,-0.26l-1.42,-0.26l-1.4,-0.25l-1.41,-0.27l-1.42,-0.26l-1.39,-0.27l-1.42,-0.27l-1.41,-0.27l-1.39,-0.27l-1.42,-0.28l-1.41,-0.27l-1.39,-0.28l-1.41,-0.29l-1.41,-0.28l-1.37,-0.28l-1.41,-0.29l-1.41,-0.29l-1.39,-0.29l-1.41,-0.3l-1.4,-0.3l-1.39,-0.3l-1.39,-0.29l-1.4,-0.31l-1.41,-0.3l-1.38,-0.31l-1.39,-0.31l-1.4,-0.31l-1.38,-0.31l-1.38,-0.32l-1.41,-0.32l-1.4,-0.32l-1.38,-0.32l-1.35,-0.32l-1.41,-0.33l-1.4,-0.33l-1.37,-0.33l-1.38,-0.33l-1.4,-0.34l-1.38,-0.33l-1.37,-0.34l-1.4,-0.34l-1.35,-0.34l-1.4,-0.35l-1.39,-0.35l-1.35,-0.34l-1.38,-0.35l-1.39,-0.36l-1.37,-0.35l-1.37,-0.36l-1.37,-0.36l-1.37,-0.36l-1.39,-0.37l-1.37,-0.36l-1.37,-0.37l-1.36,-0.37l-1.37,-0.37l-1.37,-0.37l-1.36,-0.38l-1.39,-0.38l-1.36,-0.38l-1.34,-0.38l-1.37,-0.38l-1.36,-0.39l-1.36,-0.39l-1.38,-0.39l-1.36,-0.4l-1.34,-0.39l-1.36,-0.39l-1.38,-0.41l-1.34,-0.39l-1.35,-0.4l-1.38,-0.41l-1.34,-0.41l-1.33,-0.4l-1.38,-0.42l-1.35,-0.41l-1.33,-0.41l-1.36,-0.42l-1.35,-0.42l-1.35,-0.42l-1.35,-0.42l-1.35,-0.43l-1.33,-0.42l-1.35,-0.43l-1.35,-0.43l-1.34,-0.44l-1.35,-0.43l-1.33,-0.44l-1.34,-0.44l-1.35,-0.44l-1.32,-0.44l-1.34,-0.44l-1.34,-0.45l-1.33,-0.45l-1.34,-0.45l-1.34,-0.45l-1.32,-0.46l-1.34,-0.46l-1.34,-0.46l-1.31,-0.45l-1.34,-0.47l-1.34,-0.47l-1.31,-0.46l-1.32,-0.46l-1.33,-0.48l-1.33,-0.47l-1.32,-0.47l-1.31,-0.48l-1.33,-0.48l-1.33,-0.48l-1.31,-0.48l-1.31,-0.48l-1.33,-0.49l-1.32,-0.49l-1.31,-0.49l-1.31,-0.49l-1.32,-0.5l-1.31,-0.49l-1.3,-0.5l-1.32,-0.5l-1.31,-0.5l-1.32,-0.51l-1.3,-0.5l-1.3,-0.51l-1.32,-0.51l-1.3,-0.51l-1.29,-0.51l-1.3,-0.51l-1.32,-0.53l-1.29,-0.51l-1.3,-0.52l-1.31,-0.53l-1.29,-0.52l-1.3,-0.53l-1.29,-0.53l-1.29,-0.52l-1.31,-0.54l-1.29,-0.54l-1.29,-0.53l-1.28,-0.54l-1.29,-0.54l-1.29,-0.54l-1.28,-0.54l-1.31,-0.56l-1.28,-0.54l-1.29,-0.55l-1.28,-0.55l-1.28,-0.56l-1.28,-0.55l-1.28,-0.56l-1.28,-0.56l-1.28,-0.56l-1.28,-0.56l-1.27,-0.56l-1.28,-0.57l-1.26,-0.56l-1.27,-0.57l-1.29,-0.58l-1.28,-0.58l-1.27,-0.57l-1.27,-0.58l-1.26,-0.58l-1.26,-0.58l-1.27,-0.58l-1.28,-0.6l-1.25,-0.58l-1.24,-0.58l-1.29,-0.6l-1.27,-0.59l-1.238,-0.59l-1.264,-0.6l-1.262,-0.6l-1.259,-0.6l-1.26,-0.6l-1.243,-0.6l-1.256,-0.61l-1.255,-0.61l-1.241,-0.6l-1.255,-0.61l-1.254,-0.62l-1.254,-0.62l-1.234,-0.61l-1.251,-0.62l-1.251,-0.62l-1.233,-0.62l-1.251,-0.63l-1.248,-0.62l-1.228,-0.63l-1.227,-0.62l-1.244,-0.63l-1.249,-0.64l-1.244,-0.64l-1.221,-0.63l-1.225,-0.63l-1.242,-0.65l-1.24,-0.64l-1.222,-0.64l-1.236,-0.65l-1.24,-0.66l-1.201,-0.63l-1.233,-0.66l-1.235,-0.65l-1.217,-0.65l-1.215,-0.66l-1.211,-0.65l-1.233,-0.67l-1.232,-0.66l-1.21,-0.66l-1.209,-0.66l-1.227,-0.68l-1.209,-0.66l-1.227,-0.68l-1.205,-0.67l-1.204,-0.67l-1.223,-0.68l-1.187,-0.67l-1.221,-0.68l-1.212,-0.69l-1.19,-0.67l-1.218,-0.69l-1.199,-0.69l-1.196,-0.68l-1.208,-0.69l-1.205,-0.7l-1.195,-0.69l-1.194,-0.69l-1.193,-0.7l-1.194,-0.7l-1.208,-0.7l-1.189,-0.7l-1.181,-0.7l-1.198,-0.71l-1.186,-0.71l-1.186,-0.7l-1.197,-0.72l-1.175,-0.71l-1.182,-0.71l-1.192,-0.72l-1.182,-0.72l-1.181,-0.72l-1.178,-0.71l-1.179,-0.73l-1.178,-0.72l-1.176,-0.73l-1.176,-0.73l-1.175,-0.73l-1.175,-0.73l-1.164,-0.73l-1.169,-0.73l-1.178,-0.74l-1.163,-0.74l-1.16,-0.73l-1.175,-0.75l-1.168,-0.75l-1.158,-0.74l-1.155,-0.74l-1.162,-0.75l-1.163,-0.75l-1.163,-0.75l-1.158,-0.76l-1.149,-0.75l-1.154,-0.76l-1.157,-0.76l-1.154,-0.76l-1.147,-0.76l-1.146,-0.76l-1.145,-0.76l-1.152,-0.77l-1.151,-0.77l-1.149,-0.77l-1.14,-0.77l-1.134,-0.77l-1.146,-0.78l-1.144,-0.78l-1.131,-0.77l-1.142,-0.78l-1.133,-0.78l-1.132,-0.78l-1.141,-0.79l-1.133,-0.79l-1.128,-0.79l-1.122,-0.78l-1.137,-0.8l-1.127,-0.79l-1.124,-0.79l-1.132,-0.81l-1.116,-0.79l-1.12,-0.8l-1.125,-0.8l-1.12,-0.8l-1.119,-0.81l-1.11,-0.8l-1.116,-0.81l-1.123,-0.81l-1.114,-0.82l-1.108,-0.8l-1.104,-0.81l-1.114,-0.82l-1.116,-0.83l-1.1,-0.81l-1.11,-0.82l-1.105,-0.83l-1.1,-0.82l-1.098,-0.82l-1.101,-0.83l-1.104,-0.83l-1.094,-0.83l-1.098,-0.83l-1.092,-0.83l-1.101,-0.84l-1.096,-0.84l-1.086,-0.83l-1.087,-0.84l-1.086,-0.84l-1.091,-0.85l-1.086,-0.84l-1.082,-0.85l-1.088,-0.85l-1.082,-0.85l-1.085,-0.85l-1.077,-0.85l-1.071,-0.85l-1.082,-0.86l-1.082,-0.86l-1.068,-0.85l-1.07,-0.86l-1.076,-0.87l-1.071,-0.86l-1.069,-0.87l-1.061,-0.86l-1.067,-0.87l-1.069,-0.87l-1.067,-0.88l-1.063,-0.87l-1.052,-0.86l-1.063,-0.88l-1.065,-0.89l-1.051,-0.87l-1.056,-0.88l-1.055,-0.88l-1.05,-0.89l-1.052,-0.88l-1.051,-0.89l-1.052,-0.89l-1.051,-0.89l-1.04,-0.89l-1.039,-0.89l-1.054,-0.9l-1.038,-0.89l-1.035,-0.9l-1.05,-0.9l-1.035,-0.9l-1.033,-0.9l-1.033,-0.9l-1.037,-0.91l-1.036,-0.91l-1.026,-0.9l-1.03,-0.91l-1.031,-0.92l-1.031,-0.91l-1.016,-0.91l-1.022,-0.91l-1.029,-0.93l-1.026,-0.92l-1.02,-0.92l-1.009,-0.91l-1.021,-0.93l-1.023,-0.93l-1.005,-0.92l-1.014,-0.93l-1.018,-0.93l-1.008,-0.93l-1.002,-0.93l-1.008,-0.93l-1.013,-0.94l-1.005,-0.94l-1.001,-0.94l-1.002,-0.94l-0.997,-0.93l-1,-0.95l-1.004,-0.95l-0.993,-0.94l-0.99,-0.94l-0.999,-0.96l-0.992,-0.95l-0.982,-0.94l-0.993,-0.96l-0.991,-0.95l-0.98,-0.95l-0.988,-0.96l-0.984,-0.96l-0.982,-0.96l-0.987,-0.97l-0.974,-0.96l-0.972,-0.96l-0.982,-0.97l-0.978,-0.97l-0.968,-0.96l-0.969,-0.97l-0.968,-0.97l-0.972,-0.98l-0.971,-0.98l-0.964,-0.97l-0.97,-0.98l-0.961,-0.98l-0.959,-0.98l-0.963,-0.98l-0.957,-0.98l-0.957,-0.99l-0.954,-0.98l-0.952,-0.99l-0.953,-0.99l-0.957,-1l-0.948,-0.98l-0.949,-1l-0.947,-0.99l-0.943,-1l-0.95,-1l-0.938,-0.99l-0.938,-1l-0.94,-1l-0.942,-1.01l-0.942,-1.01l-0.927,-1l-0.934,-1.01l-0.936,-1.01l-0.925,-1l-0.93,-1.02l-0.936,-1.02l-0.921,-1.01l-0.92,-1.01l-0.929,-1.02l-0.922,-1.02l-0.921,-1.02l-0.914,-1.02l-0.917,-1.02l-0.919,-1.03l-0.917,-1.02l-0.91,-1.03l-0.907,-1.02l-0.912,-1.03l-0.911,-1.04l-0.91,-1.04l-0.903,-1.03l-0.898,-1.03l-0.9,-1.03l-0.907,-1.04l-0.901,-1.05l-0.891,-1.03l-0.894,-1.04l-0.897,-1.05l-0.898,-1.05l-0.892,-1.04l-0.888,-1.05l-0.888,-1.05l-0.887,-1.05l-0.881,-1.04l-0.881,-1.05l-0.888,-1.06l-0.881,-1.06l-0.879,-1.06l-0.88,-1.06l-0.872,-1.05l-0.875,-1.07l-0.878,-1.06l-0.866,-1.06l-0.868,-1.06l-0.868,-1.07l-0.87,-1.07l-0.865,-1.07l-0.859,-1.07l-0.863,-1.07l-0.865,-1.08l-0.857,-1.07l-0.857,-1.07l-0.856,-1.08l-0.852,-1.08l-0.853,-1.08l-0.851,-1.08l-0.855,-1.09l-0.843,-1.08l-0.842,-1.07l-0.85,-1.1l-0.843,-1.09l-0.837,-1.08l-0.845,-1.1l-0.841,-1.09l-0.832,-1.09l-0.833,-1.09l-0.832,-1.09l-0.834,-1.1l-0.835,-1.11l-0.827,-1.09l-0.825,-1.1l-0.824,-1.1l-0.826,-1.11l-0.827,-1.11l-0.814,-1.09l-0.817,-1.11l-0.822,-1.11l-0.814,-1.11l-0.815,-1.11l-0.813,-1.11l-0.813,-1.12l-0.809,-1.12l-0.802,-1.1l-0.806,-1.12l-0.809,-1.12l-0.803,-1.12l-0.798,-1.12l-0.804,-1.13l-0.798,-1.12l-0.79,-1.12l-0.797,-1.13l-0.794,-1.13l-0.791,-1.12l-0.793,-1.14l-0.788,-1.13l-0.782,-1.13l-0.785,-1.13l-0.786,-1.14l-0.781,-1.13l-0.78,-1.14l-0.78,-1.14l-0.772,-1.14l-0.775,-1.14l-0.775,-1.14l-0.771,-1.14l-0.772,-1.15l-0.767,-1.15l-0.766,-1.14l-0.763,-1.15l-0.765,-1.15l-0.76,-1.15l-0.762,-1.15l-0.76,-1.16l-0.752,-1.15l-0.759,-1.16l-0.755,-1.16l-0.746,-1.15l-0.748,-1.16l-0.75,-1.16l-0.751,-1.17l-0.745,-1.16l-0.738,-1.16l-0.742,-1.17l-0.741,-1.16l-0.738,-1.17l-0.738,-1.17l-0.731,-1.17l-0.734,-1.17l-0.732,-1.18l-0.73,-1.17l-0.725,-1.17l-0.726,-1.18l-0.728,-1.18l-0.719,-1.17l-0.721,-1.18l-0.722,-1.19l-0.718,-1.18l-0.713,-1.18l-0.713,-1.18l-0.715,-1.2l-0.708,-1.18l-0.711,-1.19l-0.709,-1.19l-0.702,-1.19l-0.704,-1.19l-0.701,-1.19l-0.699,-1.19l-0.701,-1.2l-0.698,-1.2l-0.694,-1.2l-0.69,-1.19l-0.693,-1.2l-0.692,-1.21l-0.687,-1.2l-0.685,-1.2l-0.683,-1.2l-0.687,-1.21l-0.682,-1.21l-0.675,-1.2l-0.676,-1.21l-0.677,-1.21l-0.675,-1.21l-0.673,-1.22l-0.669,-1.21l-0.667,-1.21l-0.67,-1.22l-0.666,-1.22l-0.659,-1.21l-0.662,-1.22l-0.663,-1.23l-0.658,-1.22l-0.654,-1.22l-0.653,-1.22l-0.653,-1.23l-0.651,-1.22l-0.652,-1.24l-0.647,-1.22l-0.643,-1.23l-0.641,-1.22l-0.645,-1.24l-0.642,-1.24l-0.636,-1.23l-0.636,-1.23l-0.635,-1.24l-0.632,-1.23l-0.631,-1.24l-0.631,-1.24l-0.627,-1.24l-0.625,-1.25l-0.624,-1.24l-0.621,-1.24l-0.622,-1.25l-0.615,-1.24l-0.618,-1.25l-0.619,-1.25l-0.61,-1.25l-0.61,-1.25l-0.608,-1.25l-0.609,-1.25l-0.607,-1.26l-0.602,-1.25l-0.601,-1.25l-0.599,-1.26l-0.599,-1.26l-0.597,-1.26l-0.596,-1.26l-0.589,-1.25l-0.592,-1.27l-0.591,-1.26l-0.586,-1.27l-0.586,-1.26l-0.584,-1.27l-0.578,-1.26l-0.58,-1.27l-0.578,-1.27l-0.577,-1.27l-0.576,-1.28l-0.57,-1.27l-0.569,-1.27l-0.569,-1.27l-0.568,-1.28l-0.565,-1.28l-0.561,-1.27l-0.561,-1.28l-0.559,-1.28l-0.557,-1.28l-0.558,-1.29l-0.553,-1.28l-0.549,-1.28l-0.552,-1.29l-0.547,-1.28l-0.544,-1.28l-0.545,-1.3l-0.542,-1.28l-0.54,-1.29l-0.541,-1.3l-0.534,-1.29l-0.532,-1.28l-0.536,-1.31l-0.532,-1.29l-0.526,-1.29l-0.526,-1.3l-0.526,-1.3l-0.522,-1.3l-0.522,-1.3l-0.519,-1.3l-0.518,-1.3l-0.516,-1.31l-0.511,-1.29l-0.512,-1.31l-0.51,-1.31l-0.507,-1.3l-0.508,-1.32l-0.504,-1.31l-0.499,-1.3l-0.5,-1.31l-0.499,-1.31l-0.494,-1.31l-0.496,-1.32l-0.491,-1.31l-0.489,-1.31l-0.49,-1.33l-0.486,-1.31l-0.485,-1.32l-0.481,-1.32l-0.479,-1.32l-0.481,-1.32l-0.477,-1.33l-0.471,-1.31l-0.474,-1.33l-0.473,-1.33l-0.466,-1.32l-0.466,-1.33l-0.465,-1.32l-0.463,-1.33l-0.462,-1.34l-0.458,-1.33l-0.456,-1.33l-0.455,-1.33l-0.453,-1.33l-0.451,-1.34l-0.448,-1.33l-0.447,-1.34l-0.446,-1.34l-0.442,-1.33l-0.44,-1.34l-0.438,-1.34l-0.437,-1.34l-0.436,-1.34l-0.434,-1.35l-0.429,-1.34l-0.429,-1.34l-0.427,-1.35l-0.424,-1.34l-0.423,-1.35l-0.422,-1.35l-0.419,-1.35l-0.415,-1.35l-0.415,-1.35l-0.413,-1.35l-0.411,-1.35l-0.408,-1.35l-0.406,-1.36l-0.405,-1.35l-0.403,-1.36l-0.4,-1.36l-0.4,-1.36l-0.396,-1.35l-0.393,-1.36l-0.393,-1.36l-0.39,-1.36l-0.388,-1.36l-0.387,-1.37l-0.384,-1.36l-0.382,-1.36l-0.381,-1.37l-0.377,-1.37l-0.376,-1.36l-0.374,-1.37l-0.372,-1.37l-0.37,-1.37l-0.367,-1.37l-0.366,-1.37l-0.364,-1.37l-0.361,-1.37l-0.359,-1.38l-0.358,-1.37l-0.356,-1.38l-0.353,-1.37l-0.351,-1.38l-0.348,-1.37l-0.348,-1.38l-0.346,-1.39l-0.342,-1.38l-0.34,-1.38l-0.339,-1.38l-0.337,-1.38l-0.334,-1.38l-0.332,-1.39l-0.331,-1.38l-0.328,-1.39l-0.326,-1.39l-0.324,-1.38l-0.322,-1.39l-0.32,-1.39l-0.317,-1.39l-0.316,-1.39l-0.314,-1.39l-0.311,-1.39l-0.309,-1.39l-0.307,-1.4l-0.305,-1.39l-0.303,-1.4l-0.3,-1.39l-0.3,-1.4l-0.296,-1.4l-0.294,-1.39l-0.293,-1.4l-0.289,-1.4l-0.289,-1.4l-0.286,-1.41l-0.283,-1.39l-0.282,-1.41l-0.28,-1.4l-0.277,-1.41l-0.275,-1.4l-0.273,-1.41l-0.271,-1.4l-0.269,-1.41l-0.266,-1.41l-0.265,-1.41l-0.262,-1.41l-0.26,-1.4l-0.258,-1.42l-0.255,-1.4l-0.255,-1.42l-0.251,-1.41l-0.249,-1.41l-0.247,-1.42l-0.245,-1.41l-0.244,-1.42l-0.24,-1.41l-0.238,-1.42l-0.237,-1.42l-0.234,-1.42l-0.232,-1.42l-0.229,-1.42l-0.228,-1.42l-0.226,-1.42l-0.223,-1.42l-0.221,-1.42l-0.219,-1.43l-0.216,-1.42l-0.215,-1.42l-0.212,-1.43l-0.21,-1.43l-0.208,-1.42l-0.206,-1.43l-0.203,-1.43l-0.201,-1.42l-0.199,-1.43l-0.198,-1.44l-0.194,-1.43l-0.192,-1.42l-0.191,-1.44l-0.188,-1.43l-0.186,-1.43l-0.183,-1.43l-0.182,-1.44l-0.179,-1.43l-0.176,-1.44l-0.176,-1.44l-0.172,-1.43l-0.17,-1.44l-0.168,-1.44l-0.166,-1.43l-0.164,-1.44l-0.161,-1.45l-0.159,-1.44l-0.157,-1.44l-0.155,-1.44l-0.152,-1.44l-0.15,-1.44l-0.148,-1.45l-0.146,-1.44l-0.143,-1.45l-0.142,-1.44l-0.138,-1.44l-0.137,-1.45l-0.135,-1.45l-0.132,-1.45l-0.13,-1.45l-0.127,-1.44l-0.126,-1.45l-0.123,-1.45l-0.121,-1.45l-0.119,-1.46l-0.116,-1.45l-0.114,-1.45l-0.112,-1.45l-0.11,-1.46l-0.107,-1.45l-0.105,-1.45l-0.102,-1.45l-0.101,-1.46l-0.098,-1.46l-0.096,-1.46l-0.094,-1.45l-0.091,-1.46l-0.089,-1.46l-0.087,-1.46l-0.084,-1.46l-0.083,-1.46l-0.079,-1.46l-0.078,-1.46l-0.075,-1.46l-0.073,-1.46l-0.071,-1.46l-0.069,-1.46l-0.066,-1.47l-0.064,-1.46l-0.061,-1.46l-0.059,-1.47l-0.057,-1.47l-0.055,-1.46l-0.052,-1.47l-0.05,-1.46l-0.048,-1.47l-0.045,-1.47l-0.044,-1.47l-0.04,-1.46l-0.039,-1.47l-0.036,-1.47l-0.034,-1.48l-0.031,-1.47l-0.029,-1.47l-0.027,-1.47l-0.025,-1.47l-0.022,-1.47l-0.02,-1.47l-0.017,-1.48l-0.015,-1.47l-0.013,-1.47l-0.011,-1.48l-0.008,-1.48l-0.006,-1.47l-0.003,-1.47l-0.001,-1.48l0.001,-1.48l0.003,-1.47l0.006,-1.48l0.008,-1.47l0.011,-1.48l0.013,-1.47l0.015,-1.48l0.017,-1.47l0.02,-1.47l0.022,-1.48l0.025,-1.47l0.027,-1.47l0.029,-1.47l0.031,-1.47l0.034,-1.47l0.036,-1.47l0.039,-1.47l0.04,-1.47l0.044,-1.47l0.045,-1.46l0.048,-1.47l0.05,-1.47l0.052,-1.46l0.055,-1.47l0.057,-1.46l0.059,-1.47l0.061,-1.46l0.064,-1.47l0.066,-1.46l0.069,-1.46l0.071,-1.47l0.073,-1.46l0.075,-1.46l0.078,-1.46l0.079,-1.46l0.083,-1.46l0.084,-1.46l0.087,-1.46l0.089,-1.45l0.091,-1.46l0.094,-1.46l0.096,-1.46l0.098,-1.45l0.101,-1.46l0.102,-1.45l0.105,-1.45l0.107,-1.46l0.11,-1.46l0.112,-1.45l0.114,-1.45l0.116,-1.45l0.119,-1.45l0.121,-1.45l0.123,-1.45l0.126,-1.45l0.127,-1.45l0.13,-1.45l0.132,-1.44l0.135,-1.45l0.137,-1.45l0.138,-1.44l0.142,-1.45l0.143,-1.44l0.146,-1.45l0.148,-1.44l0.15,-1.44l0.152,-1.45l0.155,-1.43l0.157,-1.45l0.159,-1.44l0.161,-1.44l0.164,-1.44l0.166,-1.44l0.168,-1.43l0.17,-1.44l0.172,-1.44l0.176,-1.44l0.176,-1.43l0.179,-1.43l0.182,-1.44l0.183,-1.43l0.186,-1.43l0.188,-1.44l0.191,-1.43l0.192,-1.43l0.194,-1.43l0.198,-1.43l0.199,-1.43l0.201,-1.43l0.203,-1.43l0.206,-1.42l0.208,-1.43l0.21,-1.43l0.212,-1.42l0.215,-1.42l0.216,-1.43l0.219,-1.42l0.221,-1.42l0.223,-1.42l0.226,-1.43l0.228,-1.42l0.229,-1.42l0.232,-1.42l0.234,-1.41l0.237,-1.42l0.238,-1.42l0.241,-1.41l0.243,-1.42l0.245,-1.42l0.247,-1.41l0.249,-1.41l0.251,-1.41l0.255,-1.42l0.255,-1.41l0.258,-1.41l0.26,-1.41l0.262,-1.41l0.265,-1.41l0.266,-1.4l0.269,-1.41l0.271,-1.41l0.273,-1.4l0.275,-1.41l0.277,-1.4l0.28,-1.41l0.282,-1.4l0.283,-1.4l0.286,-1.4l0.289,-1.4l0.29,-1.4l0.292,-1.4l0.293,-1.39l0.297,-1.4l0.3,-1.4l0.3,-1.4l0.303,-1.39l0.305,-1.39l0.307,-1.4l0.309,-1.39l0.311,-1.39l0.314,-1.4l0.316,-1.39l0.317,-1.38l0.32,-1.4l0.322,-1.38l0.324,-1.39l0.326,-1.39l0.328,-1.38l0.331,-1.39l0.332,-1.38l0.334,-1.38l0.337,-1.39l0.339,-1.38l0.34,-1.38l0.342,-1.38l0.346,-1.38l0.348,-1.38l0.348,-1.37l0.351,-1.38l0.353,-1.38l0.356,-1.37l0.358,-1.38l0.359,-1.37l0.361,-1.37l0.364,-1.38l0.366,-1.37l0.367,-1.37l0.37,-1.36l0.372,-1.38l0.374,-1.36l0.376,-1.37l0.377,-1.36l0.381,-1.37l0.382,-1.36l0.385,-1.37l0.386,-1.36l0.387,-1.36l0.391,-1.36l0.393,-1.37l0.393,-1.35l0.396,-1.36l0.4,-1.36l0.4,-1.36l0.403,-1.35l0.405,-1.36l0.406,-1.35l0.408,-1.35l0.411,-1.35l0.413,-1.36l0.415,-1.35l0.415,-1.34l0.419,-1.35l0.422,-1.35l0.423,-1.35l0.424,-1.35l0.427,-1.34l0.429,-1.35l0.429,-1.33l0.434,-1.35l0.436,-1.35l0.437,-1.33l0.438,-1.34l0.44,-1.34l0.442,-1.34l0.446,-1.34l0.447,-1.33l0.448,-1.33l0.451,-1.34l0.453,-1.34l0.455,-1.33l0.456,-1.33l0.458,-1.33l0.462,-1.33l0.463,-1.33l0.465,-1.33l0.466,-1.32l0.466,-1.32l0.473,-1.33l0.474,-1.33l0.471,-1.32l0.477,-1.32l0.481,-1.33l0.479,-1.32l0.481,-1.31l0.485,-1.32l0.486,-1.32l0.49,-1.32l0.489,-1.31l0.491,-1.31l0.496,-1.32l0.494,-1.31l0.499,-1.31l0.5,-1.32l0.499,-1.3l0.506,-1.31l0.506,-1.31l0.505,-1.3l0.512,-1.31l0.512,-1.31l0.511,-1.3l0.516,-1.3l0.518,-1.31l0.519,-1.29l0.522,-1.31l0.522,-1.29l0.526,-1.31l0.526,-1.29l0.526,-1.29l0.532,-1.3l0.536,-1.3l0.532,-1.29l0.534,-1.28l0.541,-1.3l0.54,-1.29l0.542,-1.29l0.545,-1.29l0.544,-1.28l0.547,-1.29l0.552,-1.29l0.549,-1.28l0.553,-1.28l0.558,-1.28l0.557,-1.28l0.559,-1.28l0.561,-1.28l0.561,-1.28l0.565,-1.27l0.568,-1.28l0.569,-1.28l0.569,-1.27l0.57,-1.27l0.576,-1.27l0.577,-1.27l0.578,-1.27l0.58,-1.27l0.578,-1.26l0.584,-1.27l0.586,-1.27l0.588,-1.26l0.589,-1.27l0.59,-1.26l0.591,-1.26l0.596,-1.26l0.597,-1.26l0.599,-1.26l0.599,-1.25l0.601,-1.26l0.602,-1.25l0.607,-1.25l0.609,-1.26l0.608,-1.25l0.61,-1.25l0.61,-1.24l0.619,-1.26l0.62,-1.25l0.613,-1.24l0.62,-1.24l0.623,-1.25l0.624,-1.24l0.625,-1.24l0.627,-1.24l0.631,-1.24l0.631,-1.24l0.632,-1.24l0.635,-1.23l0.636,-1.24l0.636,-1.23l0.642,-1.23l0.645,-1.24l0.641,-1.22l0.643,-1.23l0.647,-1.23l0.652,-1.23l0.651,-1.23l0.653,-1.22l0.653,-1.22l0.654,-1.22l0.658,-1.22l0.663,-1.23l0.662,-1.22l0.659,-1.21l0.666,-1.22l0.67,-1.22l0.667,-1.21l0.669,-1.21l0.673,-1.22l0.675,-1.21l0.677,-1.21l0.676,-1.21l0.675,-1.2l0.682,-1.21l0.687,-1.21l0.683,-1.21l0.685,-1.2l0.687,-1.2l0.692,-1.2l0.693,-1.2l0.69,-1.2l0.694,-1.19l0.698,-1.2l0.701,-1.2l0.699,-1.19l0.701,-1.19l0.704,-1.2l0.702,-1.18l0.709,-1.19l0.711,-1.2l0.708,-1.18l0.715,-1.19l0.716,-1.19l0.71,-1.17l0.715,-1.18l0.725,-1.19l0.721,-1.18l0.719,-1.17l0.728,-1.19l0.726,-1.17l0.725,-1.17l0.73,-1.18l0.732,-1.17l0.734,-1.17l0.735,-1.18l0.734,-1.16l0.735,-1.16l0.744,-1.18l0.742,-1.17l0.738,-1.15l0.745,-1.17l0.751,-1.16l0.75,-1.17l0.748,-1.15l0.746,-1.15l0.755,-1.16l0.759,-1.17l0.752,-1.14l0.76,-1.16l0.762,-1.15l0.76,-1.15l0.765,-1.16l0.763,-1.14l0.766,-1.15l0.767,-1.14l0.772,-1.15l0.771,-1.14l0.775,-1.15l0.775,-1.14l0.771,-1.13l0.783,-1.15l0.78,-1.13l0.779,-1.136l0.786,-1.139l0.783,-1.13l0.784,-1.13l0.788,-1.131l0.793,-1.134l0.791,-1.129l0.794,-1.127l0.795,-1.127l0.794,-1.122l0.798,-1.123l0.8,-1.123l0.802,-1.121l0.801,-1.118l0.807,-1.122l0.806,-1.117l0.806,-1.113l0.809,-1.115l0.809,-1.111l0.815,-1.115l0.815,-1.112l0.816,-1.109l0.818,-1.109l0.817,-1.104l0.82,-1.106l0.823,-1.105l0.824,-1.104l0.826,-1.102l0.825,-1.097l0.829,-1.1l0.833,-1.102l0.83,-1.094l0.834,-1.096l0.837,-1.097l0.835,-1.089l0.836,-1.089l0.843,-1.094l0.839,-1.086l0.843,-1.087l0.848,-1.091l0.842,-1.079l0.847,-1.083l0.855,-1.09l0.849,-1.078l0.85,-1.077l0.857,-1.081l0.854,-1.075l0.857,-1.075l0.862,-1.078l0.858,-1.071l0.86,-1.069l0.864,-1.07l0.865,-1.07l0.87,-1.071l0.868,-1.067l0.868,-1.062l0.871,-1.064l0.871,-1.06l0.875,-1.061l0.879,-1.063l0.875,-1.055l0.879,-1.058l0.881,-1.056l0.883,-1.055l0.884,-1.053l0.885,-1.052l0.89,-1.054l0.883,-1.042l0.888,-1.045l0.894,-1.05l0.894,-1.045l0.895,-1.044l0.896,-1.042l0.898,-1.041l0.896,-1.037l0.904,-1.042l0.903,-1.037l0.898,-1.029l0.908,-1.037l0.907,-1.033l0.909,-1.032l0.91,-1.03l0.906,-1.022l0.916,-1.031l0.917,-1.029l0.913,-1.021l0.915,-1.02l0.919,-1.022l0.926,-1.027l0.92,-1.016l0.921,-1.014l0.925,-1.016l0.923,-1.012l0.931,-1.017l0.93,-1.012l0.928,-1.007l0.936,-1.013l0.934,-1.007l0.932,-1.004l0.937,-1.005l0.939,-1.004l0.94,-1.002l0.941,-1l0.943,-1l0.945,-0.998l0.943,-0.993l0.947,-0.995l0.949,-0.994l0.948,-0.989l0.954,-0.994l0.954,-0.99l0.951,-0.985l0.957,-0.986l0.96,-0.988l0.956,-0.981l0.958,-0.979l0.965,-0.984l0.963,-0.98l0.965,-0.978l0.964,-0.973l0.968,-0.975l0.969,-0.974l0.971,-0.972l0.972,-0.971l0.971,-0.966l0.978,-0.971l0.976,-0.966l0.975,-0.962l0.98,-0.964l0.983,-0.965l0.98,-0.958l0.981,-0.956l0.988,-0.96l0.983,-0.954l0.988,-0.954l0.993,-0.957l0.988,-0.949l0.989,-0.947l0.999,-0.954l0.996,-0.948l0.99,-0.94l0.998,-0.945l1,-0.943l1.003,-0.944l0.999,-0.937l1.001,-0.936l1.008,-0.94l1.007,-0.935l1.004,-0.931l1.009,-0.933l1.011,-0.931l1.012,-0.93l1.017,-0.931l1.012,-0.923l1.016,-0.925l1.014,-0.921l1.019,-0.923l1.024,-0.923l1.015,-0.913l1.027,-0.921l1.024,-0.916l1.026,-0.914l1.028,-0.913l1.025,-0.909l1.033,-0.913l1.029,-0.906l1.033,-0.907l1.034,-0.905l1.032,-0.901l1.037,-0.903l1.042,-0.904l1.039,-0.899l1.039,-0.895l1.042,-0.896l1.043,-0.895l1.046,-0.894l1.047,-0.892l1.047,-0.89l1.049,-0.888l1.048,-0.885l1.049,-0.882l1.059,-0.89l1.055,-0.883l1.05,-0.875l1.057,-0.879l1.059,-0.878l1.063,-0.879l1.058,-0.873l1.063,-0.873l1.067,-0.874l1.059,-0.865l1.07,-0.871l1.068,-0.867l1.066,-0.862l1.074,-0.867l1.069,-0.86l1.071,-0.858l1.078,-0.862l1.075,-0.857l1.075,-0.854l1.081,-0.857l1.081,-0.853l1.078,-0.848l1.082,-0.85l1.081,-0.845l1.085,-0.847l1.093,-0.85l1.085,-0.841l1.086,-0.839l1.094,-0.843l1.089,-0.836l1.089,-0.834l1.097,-0.838l1.1,-0.837l1.09,-0.827l1.098,-0.83l1.104,-0.832l1.097,-0.825l1.102,-0.826l1.104,-0.824l1.105,-0.823l1.106,-0.82l1.104,-0.817l1.109,-0.818l1.109,-0.816l1.112,-0.815l1.115,-0.815l1.111,-0.809l1.115,-0.809l1.113,-0.806l1.117,-0.806l1.119,-0.805l1.12,-0.803l1.125,-0.804l1.12,-0.798l1.123,-0.798l1.122,-0.794l1.127,-0.795l1.127,-0.794l1.129,-0.791l1.134,-0.793l1.128,-0.786l1.133,-0.786l1.133,-0.785l1.136,-0.784l1.133,-0.779l1.134,-0.778l1.146,-0.784l1.137,-0.774l1.138,-0.773l1.146,-0.775l1.144,-0.772l1.145,-0.771l1.143,-0.766l1.148,-0.767l1.149,-0.765l1.15,-0.763l1.151,-0.762l1.15,-0.758l1.157,-0.761l1.158,-0.759l1.149,-0.75l1.154,-0.752l1.163,-0.754l1.159,-0.75l1.158,-0.746l1.163,-0.747l1.167,-0.747l1.164,-0.743l1.162,-0.739l1.168,-0.741l1.171,-0.74l1.166,-0.734l1.169,-0.733l1.172,-0.734l1.171,-0.73l1.175,-0.73l1.176,-0.728l1.176,-0.726l1.178,-0.725l1.179,-0.723l1.182,-0.722l1.181,-0.719l1.178,-0.715l1.184,-0.716l1.186,-0.715l1.187,-0.713l1.185,-0.709l1.185,-0.707l1.195,-0.711l1.19,-0.705l1.189,-0.702l1.194,-0.702l1.19,-0.698l1.199,-0.701l1.197,-0.697l1.198,-0.695l1.196,-0.691l1.2,-0.692l1.204,-0.692l1.2,-0.687l1.204,-0.686l1.204,-0.685l1.204,-0.681l1.207,-0.681l1.212,-0.682l1.204,-0.675l1.21,-0.675l1.213,-0.675l1.21,-0.671l1.218,-0.672l1.214,-0.668l1.213,-0.666l1.218,-0.665l1.219,-0.664l1.219,-0.661l1.219,-0.659l1.225,-0.66l1.219,-0.654l1.226,-0.656l1.226,-0.653l1.22,-0.648l1.232,-0.651l1.231,-0.649l1.223,-0.642l1.235,-0.646l1.231,-0.642l1.228,-0.638l1.239,-0.64l1.23,-0.634l1.235,-0.635l1.244,-0.636l1.235,-0.629l1.241,-0.63l1.238,-0.626l1.238,-0.624l1.246,-0.626l1.247,-0.623l1.242,-0.619l1.247,-0.619l1.247,-0.616l1.245,-0.613l1.249,-0.613l1.251,-0.612l1.254,-0.61l1.251,-0.607l1.251,-0.604l1.257,-0.605l1.256,-0.602l1.254,-0.599l1.258,-0.598l1.258,-0.596l1.258,-0.596l1.26,-0.592l1.27,-0.591l1.26,-0.589l1.26,-0.586l1.27,-0.586l1.27,-0.585l1.26,-0.579l1.27,-0.58l1.27,-0.577l1.27,-0.577l1.27,-0.575l1.27,-0.57l1.28,-0.571l1.27,-0.569l1.28,-0.567l1.27,-0.564l1.28,-0.563l1.28,-0.561l1.28,-0.558l1.28,-0.56l1.28,-0.555l1.28,-0.55l1.29,-0.553l1.29,-0.551l1.28,-0.547l1.29,-0.546l1.28,-0.541l1.29,-0.544l1.3,-0.542l1.29,-0.538l1.28,-0.534l1.29,-0.534l1.31,-0.536l1.29,-0.53l1.29,-0.527l1.3,-0.528l1.3,-0.524l1.3,-0.523l1.3,-0.521l1.29,-0.517l1.31,-0.519l1.31,-0.517l1.29,-0.511l1.31,-0.512l1.31,-0.51l1.31,-0.509l1.3,-0.505l1.31,-0.503l1.31,-0.501l1.31,-0.5l1.31,-0.499l1.31,-0.495l1.32,-0.495l1.31,-0.49l1.32,-0.491l1.31,-0.489l1.32,-0.486l1.32,-0.484l1.32,-0.482l1.32,-0.481l1.32,-0.479l1.32,-0.474l1.33,-0.477l1.32,-0.472l1.32,-0.47l1.33,-0.468l1.32,-0.466l1.34,-0.466l1.32,-0.462l1.34,-0.462l1.32,-0.457l1.33,-0.456l1.34,-0.458l1.33,-0.452l1.33,-0.449l1.34,-0.449l1.34,-0.448l1.33,-0.445l1.34,-0.441l1.34,-0.441l1.34,-0.439l1.34,-0.436l1.34,-0.436l1.34,-0.433l1.35,-0.43l1.34,-0.429l1.35,-0.428l1.35,-0.424l1.34,-0.422l1.35,-0.42l1.34,-0.419l1.36,-0.418l1.35,-0.415l1.35,-0.412l1.35,-0.41l1.35,-0.409l1.36,-0.407l1.35,-0.404l1.36,-0.403l1.36,-0.401l1.35,-0.397l1.36,-0.398l1.36,-0.394l1.36,-0.392l1.36,-0.39l1.36,-0.388l1.36,-0.386l1.37,-0.386l1.37,-0.382l1.35,-0.378l1.37,-0.379l1.37,-0.377l1.37,-0.373l1.37,-0.372l1.36,-0.369l1.38,-0.368l1.37,-0.366l1.37,-0.364l1.37,-0.362l1.38,-0.36l1.37,-0.356l1.37,-0.354l1.38,-0.354l1.38,-0.353l1.38,-0.349l1.37,-0.346l1.38,-0.344l1.38,-0.343l1.38,-0.341l1.39,-0.34l1.38,-0.336l1.38,-0.334l1.39,-0.332l1.38,-0.33l1.39,-0.329l1.38,-0.326l1.39,-0.324l1.39,-0.322l1.39,-0.32l1.39,-0.317l1.38,-0.315l1.4,-0.315l1.39,-0.311l1.39,-0.309l1.4,-0.308l1.39,-0.304l1.39,-0.303l1.4,-0.3l1.4,-0.3l1.39,-0.296l1.4,-0.294l1.41,-0.294l1.39,-0.288l1.4,-0.288l1.4,-0.287l1.41,-0.284l1.39,-0.28l1.41,-0.281l1.41,-0.278l1.4,-0.274l1.4,-0.273l1.41,-0.27l1.41,-0.269l1.41,-0.267l1.41,-0.265l1.4,-0.261l1.41,-0.261l1.42,-0.258l1.4,-0.255l1.42,-0.255l1.41,-0.251l1.42,-0.25l1.41,-0.247l1.41,-0.244l1.41,-0.243l1.42,-0.241l1.42,-0.239l1.42,-0.236l1.42,-0.234l1.41,-0.231l1.42,-0.23l1.43,-0.228l1.42,-0.226l1.42,-0.222l1.42,-0.221l1.42,-0.219l1.43,-0.217l1.42,-0.215l1.43,-0.212l1.42,-0.21l1.43,-0.208l1.43,-0.206l1.42,-0.203l1.43,-0.201l1.43,-0.2l1.43,-0.196l1.43,-0.195l1.44,-0.193l1.43,-0.19l1.42,-0.187l1.44,-0.187l1.44,-0.184l1.42,-0.18l1.44,-0.18l1.44,-0.177l1.44,-0.175l1.43,-0.172l1.44,-0.17l1.44,-0.168l1.43,-0.166l1.45,-0.164l1.43,-0.161l1.44,-0.159l1.44,-0.157l1.45,-0.155l1.44,-0.152l1.44,-0.15l1.45,-0.149l1.44,-0.145l1.44,-0.143l1.45,-0.142l1.45,-0.139l1.44,-0.136l1.45,-0.134l1.45,-0.133l1.45,-0.13l1.44,-0.127l1.45,-0.126l1.45,-0.123l1.45,-0.121l1.45,-0.119l1.46,-0.116l1.44,-0.114l1.46,-0.112l1.45,-0.109l1.46,-0.108l1.45,-0.105l1.46,-0.103l1.45,-0.1l1.46,-0.098l1.45,-0.096l1.46,-0.094l1.46,-0.091l1.45,-0.089l1.46,-0.087l1.46,-0.084l1.46,-0.082l1.46,-0.081l1.47,-0.077l1.46,-0.076l1.45,-0.072l1.47,-0.071l1.46,-0.069l1.46,-0.066l1.47,-0.064l1.46,-0.061l1.46,-0.059l1.47,-0.057l1.47,-0.055l1.47,-0.052l1.46,-0.05l1.46,-0.048l1.47,-0.045l1.48,-0.044l1.46,-0.04l1.47,-0.039l1.47,-0.036l1.47,-0.034l1.47,-0.031l1.47,-0.029l1.47,-0.027l1.47,-0.025l1.48,-0.022l1.47,-0.02l1.48,-0.017l1.47,-0.015l1.47,-0.013l1.47,-0.011l1.49,-0.008l1.47,-0.006l1.47,-0.003l1.48,-0.001l1.48,0.001zm-2.63,203.312l-1.16,0.003l-1.15,0.005l-1.15,0.006l-1.15,0.008l-1.16,0.01l-1.15,0.012l-1.15,0.014l-1.15,0.015l-1.15,0.018l-1.15,0.019l-1.15,0.021l-1.15,0.022l-1.15,0.025l-1.14,0.026l-1.15,0.029l-1.15,0.03l-1.15,0.031l-1.14,0.034l-1.15,0.036l-1.14,0.037l-1.15,0.039l-1.14,0.041l-1.14,0.042l-1.15,0.045l-1.14,0.046l-1.14,0.048l-1.14,0.05l-1.15,0.051l-1.14,0.054l-1.14,0.055l-1.14,0.057l-1.14,0.059l-1.14,0.06l-1.14,0.062l-1.13,0.065l-1.14,0.065l-1.14,0.068l-1.14,0.07l-1.13,0.071l-1.14,0.073l-1.13,0.075l-1.14,0.076l-1.13,0.078l-1.14,0.08l-1.13,0.082l-1.13,0.084l-1.13,0.085l-1.14,0.087l-1.13,0.089l-1.13,0.091l-1.13,0.092l-1.13,0.095l-1.13,0.096l-1.13,0.097l-1.13,0.1l-1.12,0.101l-1.13,0.103l-1.13,0.105l-1.13,0.106l-1.12,0.108l-1.13,0.11l-1.12,0.112l-1.13,0.113l-1.12,0.116l-1.12,0.117l-1.13,0.118l-1.12,0.121l-1.12,0.122l-1.12,0.124l-1.12,0.125l-1.12,0.128l-1.12,0.129l-1.12,0.13l-1.12,0.133l-1.12,0.134l-1.12,0.136l-1.11,0.138l-1.12,0.139l-1.12,0.142l-1.11,0.142l-1.12,0.145l-1.11,0.146l-1.12,0.148l-1.11,0.15l-1.11,0.152l-1.12,0.153l-1.11,0.155l-1.11,0.156l-1.11,0.158l-1.11,0.16l-1.11,0.162l-1.11,0.164l-1.11,0.165l-1.1,0.167l-1.11,0.168l-1.11,0.17l-1.1,0.172l-1.11,0.174l-1.1,0.175l-1.11,0.177l-1.1,0.179l-1.11,0.18l-1.1,0.182l-1.1,0.184l-1.1,0.185l-1.11,0.187l-1.1,0.189l-1.1,0.191l-1.1,0.192l-1.1,0.194l-1.09,0.195l-1.1,0.197l-1.1,0.199l-1.09,0.201l-1.1,0.202l-1.1,0.204l-1.09,0.206l-1.1,0.207l-1.09,0.209l-1.09,0.21l-1.09,0.212l-1.1,0.214l-1.09,0.216l-1.09,0.217l-1.09,0.219l-1.09,0.221l-1.09,0.222l-1.08,0.224l-1.09,0.225l-1.09,0.227l-1.09,0.229l-1.08,0.23l-1.09,0.232l-1.08,0.234l-1.09,0.236l-1.08,0.237l-1.08,0.238l-1.09,0.241l-1.08,0.241l-1.08,0.244l-1.08,0.245l-1.08,0.247l-1.08,0.249l-1.08,0.25l-1.07,0.251l-1.08,0.254l-1.08,0.255l-1.07,0.256l-1.08,0.259l-1.07,0.26l-1.08,0.261l-1.07,0.263l-1.07,0.265l-1.08,0.266l-1.07,0.268l-1.07,0.27l-1.07,0.271l-1.07,0.273l-1.07,0.274l-1.07,0.276l-1.06,0.278l-1.07,0.279l-1.07,0.281l-1.06,0.283l-1.07,0.284l-1.06,0.286l-1.07,0.287l-1.06,0.289l-1.06,0.29l-1.06,0.292l-1.06,0.294l-1.07,0.295l-1.06,0.297l-1.05,0.298l-1.06,0.301l-1.06,0.301l-1.06,0.303l-1.06,0.305l-1.05,0.307l-1.06,0.308l-1.05,0.309l-1.06,0.311l-1.05,0.313l-1.05,0.314l-1.05,0.316l-1.05,0.317l-1.05,0.319l-1.05,0.321l-1.05,0.322l-1.05,0.324l-1.05,0.325l-1.05,0.327l-1.04,0.329l-1.05,0.329l-1.04,0.332l-1.05,0.333l-1.04,0.335l-1.04,0.336l-1.05,0.338l-1.04,0.339l-1.04,0.341l-1.04,0.343l-1.04,0.344l-1.04,0.345l-1.03,0.347l-1.04,0.349l-1.04,0.35l-1.03,0.352l-1.04,0.353l-1.04,0.355l-1.03,0.356l-1.03,0.358l-1.03,0.359l-1.03,0.361l-1.04,0.363l-1.03,0.364l-1.03,0.366l-1.02,0.367l-1.03,0.368l-1.03,0.37l-1.03,0.372l-1.02,0.373l-1.03,0.375l-1.02,0.376l-1.02,0.378l-1.03,0.379l-1.02,0.381l-1.02,0.383l-1.02,0.383l-1.02,0.386l-1.02,0.387l-1.02,0.388l-1.02,0.39l-1.01,0.391l-1.02,0.393l-1.02,0.395l-1.01,0.396l-1.01,0.397l-1.02,0.399l-1.01,0.4l-1.01,0.402l-1.01,0.404l-1.01,0.405l-1.01,0.406l-1.01,0.408l-1.01,0.409l-1.01,0.411l-1,0.413l-1.01,0.414l-1,0.415l-1.01,0.417l-1,0.418l-1,0.42l-1.01,0.421l-1,0.423l-1,0.424l-1,0.426l-0.99,0.427l-1,0.429l-1,0.43l-1,0.432l-0.99,0.433l-1,0.434l-0.99,0.436l-0.99,0.438l-1,0.439l-0.99,0.44l-0.99,0.442l-0.99,0.444l-0.99,0.444l-0.98,0.447l-0.99,0.447l-0.99,0.45l-0.98,0.45l-0.99,0.452l-0.98,0.454l-0.99,0.455l-0.98,0.456l-0.98,0.458l-0.98,0.459l-0.99,0.461l-0.97,0.462l-0.98,0.464l-0.98,0.465l-0.98,0.467l-0.97,0.468l-0.98,0.469l-0.97,0.471l-0.98,0.472l-0.97,0.474l-0.97,0.475l-0.98,0.477l-0.97,0.478l-0.97,0.479l-0.96,0.481l-0.97,0.482l-0.97,0.484l-0.97,0.485l-0.96,0.487l-0.97,0.488l-0.96,0.489l-0.96,0.491l-0.96,0.492l-0.97,0.494l-0.96,0.495l-0.96,0.496l-0.96,0.498l-0.95,0.499l-0.96,0.501l-0.96,0.502l-0.95,0.503l-0.96,0.505l-0.95,0.506l-0.95,0.508l-0.95,0.509l-0.96,0.511l-0.95,0.511l-0.95,0.514l-0.94,0.514l-0.95,0.516l-0.95,0.518l-0.95,0.519l-0.94,0.52l-0.94,0.521l-0.95,0.523l-0.94,0.525l-0.94,0.525l-0.94,0.527l-0.94,0.529l-0.94,0.53l-0.94,0.531l-0.94,0.533l-0.93,0.534l-0.94,0.535l-0.93,0.537l-0.94,0.538l-0.93,0.539l-0.93,0.541l-0.93,0.542l-0.93,0.544l-0.93,0.545l-0.93,0.546l-0.93,0.548l-0.92,0.549l-0.93,0.55l-0.93,0.552l-0.92,0.553l-0.92,0.554l-0.92,0.556l-0.93,0.557l-0.92,0.559l-0.91,0.559l-0.92,0.562l-0.92,0.562l-0.92,0.564l-0.91,0.565l-0.92,0.567l-0.91,0.567l-0.92,0.57l-0.91,0.57l-0.91,0.572l-0.91,0.573l-0.91,0.575l-0.91,0.576l-0.9,0.577l-0.91,0.578l-0.91,0.58l-0.9,0.581l-0.9,0.583l-0.91,0.584l-0.9,0.585l-0.9,0.586l-0.9,0.588l-0.898,0.589l-0.898,0.591l-0.898,0.591l-0.896,0.593l-0.895,0.595l-0.894,0.595l-0.894,0.597l-0.892,0.598l-0.892,0.6l-0.89,0.601l-0.89,0.602l-0.889,0.604l-0.887,0.604l-0.887,0.606l-0.886,0.608l-0.885,0.609l-0.883,0.609l-0.883,0.612l-0.882,0.612l-0.881,0.614l-0.88,0.615l-0.879,0.617l-0.878,0.617l-0.877,0.619l-0.876,0.621l-0.876,0.621l-0.874,0.623l-0.873,0.624l-0.872,0.626l-0.872,0.626l-0.87,0.628l-0.869,0.629l-0.868,0.631l-0.868,0.632l-0.866,0.633l-0.865,0.634l-0.865,0.636l-0.863,0.636l-0.863,0.639l-0.861,0.639l-0.86,0.641l-0.86,0.641l-0.858,0.644l-0.858,0.644l-0.856,0.646l-0.856,0.647l-0.854,0.648l-0.853,0.649l-0.853,0.651l-0.851,0.652l-0.851,0.653l-0.849,0.654l-0.848,0.656l-0.848,0.657l-0.846,0.658l-0.846,0.659l-0.844,0.661l-0.843,0.662l-0.842,0.663l-0.842,0.664l-0.84,0.666l-0.839,0.667l-0.839,0.668l-0.837,0.669l-0.836,0.671l-0.835,0.671l-0.834,0.673l-0.833,0.674l-0.832,0.676l-0.831,0.676l-0.83,0.678l-0.829,0.679l-0.828,0.681l-0.827,0.681l-0.826,0.683l-0.825,0.684l-0.824,0.685l-0.822,0.686l-0.822,0.688l-0.821,0.688l-0.819,0.69l-0.819,0.692l-0.817,0.692l-0.817,0.694l-0.815,0.694l-0.814,0.696l-0.814,0.697l-0.812,0.699l-0.811,0.699l-0.81,0.701l-0.809,0.702l-0.808,0.703l-0.807,0.705l-0.806,0.705l-0.805,0.707l-0.803,0.708l-0.803,0.709l-0.802,0.71l-0.8,0.712l-0.799,0.712l-0.799,0.714l-0.797,0.715l-0.796,0.716l-0.795,0.718l-0.794,0.718l-0.793,0.72l-0.792,0.721l-0.791,0.722l-0.79,0.723l-0.788,0.724l-0.788,0.726l-0.786,0.726l-0.786,0.728l-0.784,0.729l-0.783,0.731l-0.782,0.731l-0.781,0.732l-0.78,0.734l-0.779,0.738l-0.777,0.73l-0.777,0.74l-0.775,0.74l-0.775,0.74l-0.773,0.74l-0.772,0.74l-0.771,0.74l-0.77,0.75l-0.769,0.74l-0.767,0.75l-0.767,0.75l-0.765,0.74l-0.765,0.75l-0.763,0.76l-0.762,0.75l-0.761,0.75l-0.76,0.75l-0.759,0.76l-0.757,0.76l-0.757,0.75l-0.755,0.76l-0.754,0.76l-0.753,0.76l-0.752,0.77l-0.751,0.76l-0.75,0.76l-0.749,0.77l-0.747,0.76l-0.746,0.77l-0.745,0.77l-0.744,0.77l-0.743,0.77l-0.742,0.77l-0.74,0.78l-0.74,0.77l-0.738,0.78l-0.737,0.77l-0.736,0.78l-0.735,0.78l-0.734,0.78l-0.732,0.78l-0.731,0.78l-0.731,0.79l-0.729,0.78l-0.728,0.79l-0.726,0.78l-0.726,0.79l-0.724,0.79l-0.723,0.79l-0.722,0.79l-0.721,0.79l-0.72,0.79l-0.718,0.8l-0.718,0.79l-0.716,0.8l-0.715,0.8l-0.714,0.79l-0.712,0.8l-0.712,0.81l-0.71,0.8l-0.709,0.8l-0.708,0.8l-0.707,0.81l-0.705,0.8l-0.705,0.81l-0.703,0.81l-0.702,0.81l-0.701,0.81l-0.699,0.81l-0.699,0.81l-0.697,0.81l-0.696,0.82l-0.694,0.81l-0.694,0.82l-0.692,0.82l-0.692,0.82l-0.69,0.81l-0.688,0.83l-0.688,0.82l-0.686,0.82l-0.685,0.82l-0.684,0.83l-0.683,0.83l-0.681,0.82l-0.681,0.83l-0.679,0.83l-0.678,0.83l-0.676,0.83l-0.676,0.83l-0.674,0.83l-0.673,0.84l-0.671,0.83l-0.671,0.84l-0.669,0.84l-0.668,0.84l-0.667,0.83l-0.666,0.85l-0.664,0.84l-0.663,0.84l-0.662,0.84l-0.661,0.85l-0.659,0.84l-0.658,0.85l-0.657,0.85l-0.656,0.84l-0.654,0.85l-0.653,0.85l-0.652,0.86l-0.651,0.85l-0.649,0.85l-0.648,0.86l-0.647,0.85l-0.646,0.86l-0.644,0.85l-0.644,0.86l-0.641,0.86l-0.641,0.86l-0.639,0.86l-0.639,0.87l-0.636,0.86l-0.636,0.87l-0.634,0.86l-0.633,0.87l-0.632,0.86l-0.631,0.87l-0.629,0.87l-0.628,0.87l-0.626,0.87l-0.626,0.87l-0.624,0.88l-0.623,0.87l-0.621,0.88l-0.621,0.87l-0.619,0.88l-0.617,0.88l-0.617,0.88l-0.615,0.88l-0.614,0.88l-0.612,0.88l-0.612,0.88l-0.61,0.89l-0.608,0.88l-0.608,0.89l-0.606,0.88l-0.604,0.89l-0.604,0.89l-0.602,0.89l-0.601,0.89l-0.6,0.89l-0.598,0.9l-0.597,0.89l-0.595,0.89l-0.595,0.9l-0.593,0.89l-0.592,0.9l-0.59,0.9l-0.589,0.9l-0.588,0.9l-0.586,0.9l-0.585,0.9l-0.584,0.9l-0.583,0.91l-0.581,0.9l-0.58,0.91l-0.578,0.91l-0.577,0.9l-0.576,0.91l-0.575,0.91l-0.573,0.91l-0.572,0.91l-0.57,0.91l-0.57,0.92l-0.567,0.91l-0.567,0.91l-0.565,0.92l-0.564,0.92l-0.562,0.91l-0.562,0.92l-0.559,0.92l-0.559,0.92l-0.557,0.92l-0.556,0.93l-0.554,0.92l-0.553,0.92l-0.552,0.93l-0.55,0.92l-0.549,0.93l-0.548,0.93l-0.546,0.93l-0.545,0.92l-0.544,0.94l-0.542,0.93l-0.541,0.93l-0.539,0.93l-0.538,0.93l-0.537,0.94l-0.535,0.93l-0.534,0.94l-0.533,0.94l-0.531,0.94l-0.53,0.93l-0.529,0.94l-0.527,0.95l-0.525,0.94l-0.525,0.94l-0.523,0.94l-0.521,0.95l-0.52,0.94l-0.519,0.95l-0.518,0.95l-0.516,0.94l-0.514,0.95l-0.514,0.95l-0.511,0.95l-0.511,0.95l-0.509,0.95l-0.508,0.96l-0.506,0.95l-0.505,0.96l-0.503,0.95l-0.502,0.96l-0.501,0.95l-0.499,0.96l-0.498,0.96l-0.496,0.96l-0.496,0.96l-0.493,0.96l-0.492,0.96l-0.491,0.97l-0.489,0.96l-0.488,0.97l-0.487,0.96l-0.485,0.97l-0.484,0.97l-0.482,0.96l-0.481,0.97l-0.479,0.97l-0.478,0.97l-0.477,0.98l-0.475,0.97l-0.474,0.97l-0.472,0.97l-0.471,0.98l-0.469,0.97l-0.468,0.98l-0.467,0.98l-0.465,0.98l-0.464,0.97l-0.462,0.98l-0.461,0.98l-0.459,0.99l-0.458,0.98l-0.456,0.98l-0.455,0.98l-0.454,0.99l-0.452,0.98l-0.45,0.99l-0.45,0.99l-0.447,0.98l-0.447,0.99l-0.444,0.99l-0.444,0.99l-0.442,0.99l-0.44,0.99l-0.439,1l-0.438,0.99l-0.436,0.99l-0.434,1l-0.433,0.99l-0.432,1l-0.43,1l-0.429,0.99l-0.427,1l-0.426,1l-0.424,1l-0.423,1l-0.421,1.01l-0.42,1l-0.418,1l-0.417,1.01l-0.415,1l-0.414,1.01l-0.413,1l-0.411,1.01l-0.409,1.01l-0.408,1.01l-0.406,1.01l-0.405,1.01l-0.404,1.01l-0.402,1.01l-0.4,1.01l-0.399,1.01l-0.397,1.02l-0.396,1.01l-0.395,1.02l-0.393,1.01l-0.391,1.02l-0.39,1.02l-0.388,1.02l-0.387,1.02l-0.386,1.02l-0.383,1.02l-0.383,1.02l-0.381,1.02l-0.379,1.02l-0.378,1.03l-0.376,1.02l-0.375,1.03l-0.373,1.02l-0.372,1.03l-0.37,1.03l-0.368,1.02l-0.367,1.03l-0.366,1.03l-0.364,1.03l-0.363,1.03l-0.361,1.03l-0.359,1.04l-0.358,1.03l-0.356,1.03l-0.355,1.04l-0.353,1.03l-0.352,1.04l-0.35,1.04l-0.349,1.03l-0.347,1.04l-0.346,1.04l-0.344,1.04l-0.342,1.04l-0.341,1.04l-0.339,1.04l-0.338,1.04l-0.336,1.05l-0.335,1.04l-0.333,1.04l-0.332,1.05l-0.33,1.05l-0.328,1.04l-0.327,1.05l-0.325,1.05l-0.324,1.04l-0.322,1.05l-0.321,1.05l-0.319,1.05l-0.317,1.05l-0.316,1.06l-0.314,1.05l-0.313,1.05l-0.311,1.06l-0.31,1.05l-0.307,1.06l-0.307,1.05l-0.305,1.06l-0.303,1.06l-0.302,1.05l-0.3,1.06l-0.298,1.06l-0.297,1.06l-0.295,1.06l-0.294,1.06l-0.292,1.07l-0.29,1.06l-0.289,1.06l-0.288,1.07l-0.285,1.06l-0.284,1.06l-0.283,1.07l-0.281,1.07l-0.279,1.06l-0.278,1.07l-0.276,1.07l-0.274,1.07l-0.273,1.07l-0.271,1.07l-0.27,1.07l-0.268,1.07l-0.266,1.07l-0.265,1.08l-0.263,1.07l-0.261,1.08l-0.26,1.07l-0.259,1.08l-0.256,1.07l-0.255,1.08l-0.254,1.08l-0.251,1.07l-0.25,1.08l-0.249,1.08l-0.247,1.08l-0.245,1.08l-0.244,1.08l-0.241,1.08l-0.241,1.09l-0.238,1.08l-0.237,1.08l-0.236,1.09l-0.234,1.08l-0.232,1.09l-0.23,1.08l-0.229,1.09l-0.227,1.09l-0.225,1.08l-0.224,1.09l-0.223,1.09l-0.22,1.09l-0.219,1.09l-0.217,1.09l-0.216,1.09l-0.214,1.09l-0.212,1.1l-0.21,1.09l-0.209,1.09l-0.207,1.1l-0.206,1.09l-0.204,1.1l-0.202,1.09l-0.201,1.1l-0.199,1.1l-0.197,1.1l-0.195,1.09l-0.194,1.1l-0.192,1.1l-0.191,1.1l-0.189,1.1l-0.187,1.1l-0.185,1.1l-0.184,1.11l-0.182,1.1l-0.18,1.1l-0.179,1.11l-0.177,1.1l-0.175,1.11l-0.174,1.1l-0.172,1.11l-0.17,1.11l-0.169,1.1l-0.166,1.11l-0.165,1.11l-0.164,1.11l-0.162,1.11l-0.16,1.11l-0.158,1.11l-0.156,1.11l-0.155,1.11l-0.154,1.12l-0.151,1.11l-0.15,1.11l-0.148,1.12l-0.146,1.11l-0.145,1.12l-0.143,1.11l-0.141,1.12l-0.139,1.11l-0.138,1.12l-0.136,1.12l-0.134,1.12l-0.133,1.12l-0.13,1.11l-0.129,1.12l-0.128,1.13l-0.125,1.12l-0.124,1.12l-0.122,1.12l-0.121,1.12l-0.119,1.12l-0.116,1.13l-0.116,1.12l-0.113,1.13l-0.112,1.12l-0.11,1.13l-0.108,1.12l-0.106,1.13l-0.105,1.13l-0.103,1.12l-0.101,1.13l-0.1,1.13l-0.097,1.13l-0.096,1.13l-0.095,1.13l-0.092,1.13l-0.091,1.13l-0.089,1.13l-0.087,1.13l-0.085,1.14l-0.084,1.13l-0.082,1.13l-0.08,1.14l-0.078,1.13l-0.076,1.13l-0.075,1.14l-0.073,1.14l-0.071,1.13l-0.07,1.14l-0.068,1.14l-0.065,1.13l-0.065,1.14l-0.062,1.14l-0.06,1.14l-0.059,1.14l-0.057,1.14l-0.055,1.14l-0.054,1.14l-0.051,1.14l-0.05,1.15l-0.048,1.14l-0.046,1.14l-0.045,1.14l-0.042,1.15l-0.041,1.14l-0.039,1.15l-0.038,1.14l-0.035,1.15l-0.034,1.14l-0.031,1.15l-0.03,1.15l-0.029,1.14l-0.026,1.15l-0.025,1.15l-0.022,1.15l-0.021,1.15l-0.019,1.15l-0.018,1.15l-0.015,1.15l-0.014,1.15l-0.012,1.15l-0.01,1.15l-0.008,1.15l-0.006,1.16l-0.005,1.15l-0.003,1.15l-0.001,1.16l0.001,1.15l0.003,1.16l0.005,1.15l0.006,1.15l0.008,1.15l0.01,1.15l0.012,1.16l0.014,1.15l0.015,1.15l0.018,1.15l0.019,1.15l0.021,1.15l0.022,1.15l0.025,1.14l0.026,1.15l0.029,1.15l0.03,1.15l0.031,1.14l0.034,1.15l0.035,1.14l0.038,1.15l0.039,1.14l0.041,1.15l0.042,1.14l0.045,1.15l0.046,1.14l0.048,1.14l0.05,1.14l0.051,1.14l0.054,1.14l0.055,1.15l0.057,1.14l0.059,1.14l0.06,1.14l0.062,1.13l0.065,1.14l0.065,1.14l0.068,1.14l0.07,1.13l0.071,1.14l0.073,1.14l0.075,1.13l0.076,1.14l0.078,1.13l0.08,1.13l0.082,1.14l0.084,1.13l0.085,1.13l0.087,1.14l0.089,1.13l0.091,1.13l0.092,1.13l0.095,1.13l0.096,1.13l0.097,1.13l0.1,1.12l0.101,1.13l0.103,1.13l0.105,1.13l0.106,1.12l0.108,1.13l0.11,1.12l0.112,1.13l0.113,1.12l0.116,1.13l0.116,1.12l0.119,1.13l0.121,1.12l0.122,1.12l0.124,1.12l0.125,1.12l0.128,1.12l0.129,1.12l0.13,1.12l0.133,1.12l0.134,1.12l0.136,1.12l0.138,1.11l0.139,1.12l0.141,1.12l0.143,1.11l0.145,1.12l0.146,1.11l0.148,1.11l0.15,1.12l0.151,1.11l0.154,1.11l0.155,1.12l0.156,1.11l0.158,1.11l0.16,1.11l0.162,1.11l0.164,1.11l0.165,1.1l0.166,1.11l0.169,1.11l0.17,1.11l0.172,1.1l0.174,1.11l0.175,1.1l0.177,1.11l0.179,1.1l0.18,1.1l0.182,1.11l0.184,1.1l0.185,1.1l0.187,1.1l0.189,1.1l0.191,1.1l0.192,1.1l0.194,1.1l0.195,1.1l0.197,1.1l0.199,1.1l0.201,1.09l0.202,1.1l0.204,1.09l0.206,1.1l0.207,1.09l0.209,1.1l0.21,1.09l0.212,1.09l0.214,1.09l0.216,1.09l0.217,1.1l0.219,1.09l0.22,1.09l0.223,1.09l0.224,1.08l0.225,1.09l0.227,1.09l0.229,1.08l0.23,1.09l0.232,1.09l0.234,1.08l0.236,1.08l0.237,1.09l0.238,1.08l0.241,1.08l0.241,1.08l0.244,1.08l0.245,1.09l0.247,1.08l0.249,1.07l0.25,1.08l0.251,1.08l0.254,1.08l0.255,1.07l0.256,1.08l0.259,1.08l0.26,1.07l0.261,1.08l0.263,1.07l0.265,1.07l0.266,1.07l0.268,1.08l0.27,1.07l0.271,1.07l0.273,1.07l0.274,1.07l0.276,1.06l0.278,1.07l0.279,1.07l0.281,1.07l0.283,1.06l0.284,1.07l0.285,1.06l0.288,1.07l0.289,1.06l0.29,1.06l0.292,1.06l0.294,1.06l0.295,1.06l0.297,1.06l0.298,1.06l0.3,1.06l0.302,1.06l0.303,1.06l0.305,1.05l0.307,1.06l0.307,1.06l0.31,1.05l0.311,1.05l0.313,1.06l0.314,1.05l0.316,1.05l0.317,1.05l0.319,1.05l0.321,1.05l0.322,1.05l0.324,1.05l0.325,1.05l0.327,1.04l0.328,1.05l0.33,1.05l0.332,1.04l0.333,1.05l0.335,1.04l0.336,1.04l0.338,1.05l0.339,1.04l0.341,1.04l0.342,1.04l0.344,1.04l0.346,1.04l0.347,1.03l0.349,1.04l0.35,1.04l0.352,1.03l0.353,1.04l0.355,1.03l0.356,1.04l0.358,1.03l0.359,1.03l0.361,1.03l0.363,1.03l0.364,1.03l0.366,1.03l0.367,1.03l0.368,1.03l0.37,1.03l0.372,1.02l0.373,1.03l0.375,1.03l0.376,1.02l0.378,1.02l0.379,1.03l0.381,1.02l0.383,1.02l0.383,1.02l0.386,1.02l0.387,1.02l0.388,1.02l0.39,1.02l0.391,1.01l0.393,1.02l0.395,1.01l0.396,1.02l0.397,1.01l0.399,1.02l0.4,1.01l0.402,1.01l0.404,1.01l0.405,1.01l0.406,1.01l0.408,1.01l0.409,1.01l0.411,1l0.413,1.01l0.414,1.01l0.415,1l0.417,1.01l0.418,1l0.42,1l0.421,1l0.423,1l0.424,1l0.426,1l0.427,1l0.429,1l0.43,1l0.432,0.99l0.433,1l0.434,0.99l0.436,1l0.438,0.99l0.439,0.99l0.44,0.99l0.442,0.99l0.444,0.99l0.444,0.99l0.447,0.99l0.447,0.99l0.45,0.99l0.45,0.98l0.452,0.99l0.454,0.98l0.455,0.99l0.456,0.98l0.458,0.98l0.459,0.98l0.461,0.98l0.462,0.98l0.464,0.98l0.465,0.98l0.467,0.98l0.468,0.97l0.469,0.98l0.471,0.97l0.472,0.98l0.474,0.97l0.475,0.97l0.477,0.97l0.478,0.97l0.479,0.97l0.481,0.97l0.482,0.97l0.484,0.97l0.485,0.96l0.487,0.97l0.488,0.96l0.489,0.97l0.491,0.96l0.492,0.96l0.493,0.96l0.496,0.97l0.496,0.95l0.498,0.96l0.499,0.96l0.501,0.96l0.502,0.96l0.503,0.95l0.505,0.96l0.506,0.95l0.508,0.95l0.509,0.95l0.511,0.95l0.511,0.96l0.514,0.94l0.514,0.95l0.516,0.95l0.518,0.95l0.519,0.94l0.52,0.95l0.521,0.94l0.523,0.95l0.525,0.94l0.525,0.94l0.527,0.94l0.529,0.94l0.53,0.94l0.531,0.94l0.533,0.93l0.534,0.94l0.535,0.94l0.537,0.93l0.538,0.94l0.539,0.93l0.541,0.93l0.542,0.93l0.544,0.93l0.545,0.93l0.546,0.93l0.548,0.93l0.549,0.92l0.55,0.93l0.552,0.92l0.553,0.93l0.554,0.92l0.556,0.92l0.557,0.92l0.559,0.92l0.559,0.92l0.562,0.92l0.562,0.92l0.564,0.92l0.565,0.91l0.567,0.92l0.567,0.91l0.57,0.91l0.57,0.92l0.572,0.91l0.573,0.91l0.575,0.91l0.576,0.9l0.577,0.91l0.578,0.91l0.58,0.9l0.581,0.91l0.583,0.9l0.584,0.9l0.585,0.91l0.586,0.9l0.588,0.9l0.589,0.9l0.59,0.89l0.592,0.9l0.593,0.9l0.595,0.89l0.595,0.9l0.597,0.89l0.598,0.89l0.6,0.9l0.601,0.89l0.602,0.89l0.604,0.88l0.604,0.89l0.606,0.89l0.608,0.88l0.608,0.89l0.61,0.88l0.612,0.89l0.612,0.88l0.614,0.88l0.615,0.88l0.617,0.88l0.617,0.88l0.619,0.87l0.621,0.88l0.621,0.87l0.623,0.88l0.624,0.87l0.626,0.87l0.626,0.87l0.628,0.88l0.629,0.86l0.631,0.87l0.632,0.87l0.633,0.87l0.634,0.86l0.636,0.87l0.636,0.86l0.639,0.86l0.639,0.86l0.641,0.86l0.641,0.86l0.644,0.86l0.644,0.86l0.646,0.86l0.647,0.85l0.648,0.86l0.649,0.85l0.651,0.85l0.652,0.85l0.653,0.85l0.654,0.85l0.656,0.85l0.657,0.85l0.658,0.84l0.659,0.85l0.661,0.84l0.662,0.85l0.663,0.84l0.664,0.84l0.666,0.84l0.667,0.84l0.668,0.84l0.669,0.84l0.671,0.83l0.671,0.84l0.673,0.83l0.674,0.83l0.676,0.84l0.676,0.83l0.678,0.83l0.679,0.83l0.681,0.82l0.681,0.83l0.683,0.83l0.684,0.82l0.685,0.82l0.686,0.83l0.688,0.82l0.688,0.82l0.69,0.82l0.692,0.82l0.692,0.82l0.694,0.81l0.694,0.82l0.696,0.81l0.697,0.82l0.699,0.81l0.699,0.81l0.701,0.81l0.702,0.81l0.703,0.81l0.705,0.8l0.705,0.81l0.707,0.8l0.708,0.81l0.709,0.8l0.71,0.8l0.712,0.8l0.712,0.8l0.714,0.8l0.715,0.8l0.716,0.79l0.718,0.8l0.718,0.79l0.72,0.8l0.721,0.79l0.722,0.79l0.723,0.79l0.724,0.79l0.726,0.78l0.726,0.79l0.728,0.79l0.729,0.78l0.731,0.78l0.731,0.79l0.732,0.78l0.734,0.78l0.735,0.78l0.736,0.77l0.737,0.78l0.738,0.77l0.74,0.78l0.74,0.77l0.742,0.77l0.743,0.78l0.744,0.77l0.745,0.76l0.746,0.77l0.747,0.77l0.749,0.76l0.75,0.77l0.751,0.76l0.752,0.76l0.753,0.76l0.754,0.76l0.755,0.76l0.757,0.76l0.757,0.76l0.759,0.75l0.76,0.76l0.761,0.75l0.762,0.75l0.763,0.75l0.765,0.75l0.765,0.75l0.767,0.75l0.767,0.74l0.769,0.75l0.77,0.74l0.771,0.75l0.772,0.74l0.773,0.74l0.775,0.74l0.775,0.74l0.777,0.73l0.777,0.74l0.779,0.73l0.78,0.74l0.781,0.73l0.782,0.73l0.783,0.73l0.784,0.73l0.786,0.73l0.786,0.72l0.788,0.73l0.788,0.73l0.79,0.72l0.791,0.72l0.792,0.72l0.793,0.72l0.794,0.72l0.795,0.72l0.796,0.71l0.797,0.72l0.799,0.71l0.799,0.71l0.8,0.72l0.802,0.71l0.803,0.71l0.803,0.7l0.805,0.71l0.806,0.71l0.807,0.7l0.808,0.7l0.809,0.71l0.81,0.7l0.811,0.69l0.812,0.7l0.814,0.7l0.814,0.7l0.815,0.69l0.817,0.69l0.817,0.7l0.819,0.69l0.819,0.69l0.821,0.69l0.822,0.69l0.822,0.68l0.824,0.69l0.825,0.68l0.826,0.68l0.827,0.68l0.828,0.69l0.829,0.67l0.83,0.68l0.831,0.68l0.832,0.67l0.833,0.68l0.834,0.67l0.835,0.67l0.836,0.67l0.837,0.67l0.839,0.67l0.839,0.67l0.84,0.66l0.842,0.67l0.842,0.66l0.843,0.66l0.844,0.66l0.846,0.66l0.846,0.66l0.848,0.66l0.848,0.65l0.849,0.66l0.851,0.65l0.851,0.65l0.853,0.65l0.853,0.65l0.854,0.65l0.856,0.65l0.856,0.64l0.858,0.65l0.858,0.64l0.86,0.64l0.86,0.64l0.861,0.64l0.863,0.64l0.863,0.64l0.865,0.63l0.865,0.64l0.866,0.63l0.868,0.63l0.868,0.63l0.869,0.63l0.87,0.63l0.872,0.63l0.872,0.62l0.873,0.63l0.874,0.62l0.876,0.62l0.876,0.62l0.877,0.62l0.878,0.62l0.879,0.61l0.88,0.62l0.881,0.61l0.882,0.61l0.883,0.62l0.883,0.61l0.885,0.6l0.886,0.61l0.887,0.61l0.887,0.6l0.889,0.61l0.89,0.6l0.89,0.6l0.892,0.6l0.892,0.6l0.894,0.59l0.894,0.6l0.895,0.59l0.896,0.6l0.898,0.59l0.898,0.59l0.898,0.59l0.9,0.59l0.9,0.58l0.9,0.59l0.91,0.58l0.9,0.58l0.9,0.59l0.91,0.58l0.91,0.57l0.9,0.58l0.91,0.58l0.91,0.57l0.91,0.57l0.91,0.58l0.91,0.57l0.92,0.57l0.91,0.56l0.92,0.57l0.91,0.57l0.92,0.56l0.92,0.56l0.92,0.56l0.91,0.56l0.92,0.56l0.93,0.56l0.92,0.55l0.92,0.56l0.92,0.55l0.93,0.55l0.93,0.55l0.92,0.55l0.93,0.55l0.93,0.55l0.93,0.54l0.93,0.55l0.93,0.54l0.93,0.54l0.93,0.54l0.94,0.54l0.93,0.53l0.94,0.54l0.93,0.53l0.94,0.54l0.94,0.53l0.94,0.53l0.94,0.52l0.94,0.53l0.94,0.53l0.94,0.52l0.95,0.53l0.94,0.52l0.94,0.52l0.95,0.52l0.95,0.51l0.95,0.52l0.94,0.51l0.95,0.52l0.95,0.51l0.96,0.51l0.95,0.51l0.95,0.51l0.95,0.5l0.96,0.51l0.95,0.5l0.96,0.5l0.96,0.5l0.95,0.5l0.96,0.5l0.96,0.5l0.96,0.49l0.97,0.49l0.96,0.5l0.96,0.49l0.96,0.49l0.97,0.49l0.96,0.48l0.97,0.49l0.97,0.48l0.97,0.48l0.96,0.48l0.97,0.48l0.97,0.48l0.98,0.48l0.97,0.47l0.97,0.48l0.98,0.47l0.97,0.47l0.98,0.47l0.97,0.47l0.98,0.46l0.98,0.47l0.98,0.46l0.97,0.46l0.99,0.47l0.98,0.46l0.98,0.45l0.98,0.46l0.99,0.45l0.98,0.46l0.99,0.45l0.98,0.45l0.99,0.45l0.99,0.45l0.98,0.44l0.99,0.45l0.99,0.44l0.99,0.44l0.99,0.44l1,0.44l0.99,0.44l0.99,0.44l1,0.43l0.99,0.43l1,0.44l1,0.43l1,0.42l0.99,0.43l1,0.43l1,0.42l1,0.43l1.01,0.42l1,0.42l1,0.41l1.01,0.42l1,0.42l1.01,0.41l1,0.41l1.01,0.41l1.01,0.41l1.01,0.41l1.01,0.41l1.01,0.4l1.01,0.41l1.01,0.4l1.01,0.4l1.02,0.4l1.01,0.39l1.01,0.4l1.02,0.4l1.02,0.39l1.01,0.39l1.02,0.39l1.02,0.39l1.02,0.38l1.02,0.39l1.02,0.38l1.02,0.39l1.02,0.38l1.03,0.38l1.02,0.37l1.02,0.38l1.03,0.38l1.02,0.37l1.03,0.37l1.03,0.37l1.03,0.37l1.02,0.36l1.03,0.37l1.03,0.36l1.04,0.37l1.03,0.36l1.03,0.36l1.03,0.36l1.03,0.35l1.04,0.36l1.04,0.35l1.03,0.35l1.04,0.35l1.04,0.35l1.03,0.35l1.04,0.34l1.04,0.35l1.04,0.34l1.04,0.34l1.04,0.34l1.05,0.34l1.04,0.33l1.04,0.34l1.05,0.33l1.04,0.33l1.05,0.33l1.04,0.33l1.05,0.33l1.05,0.32l1.05,0.33l1.05,0.32l1.05,0.32l1.05,0.32l1.05,0.32l1.05,0.31l1.05,0.32l1.05,0.31l1.06,0.31l1.05,0.31l1.06,0.31l1.05,0.31l1.06,0.3l1.06,0.3l1.06,0.3l1.06,0.3l1.05,0.3l1.06,0.3l1.07,0.29l1.06,0.3l1.06,0.29l1.06,0.29l1.06,0.29l1.07,0.29l1.06,0.28l1.07,0.29l1.06,0.28l1.07,0.28l1.07,0.28l1.06,0.28l1.07,0.27l1.07,0.28l1.07,0.27l1.07,0.27l1.07,0.27l1.07,0.27l1.08,0.27l1.07,0.26l1.07,0.26l1.08,0.26l1.07,0.27l1.08,0.25l1.07,0.26l1.08,0.26l1.08,0.25l1.07,0.25l1.08,0.25l1.08,0.25l1.08,0.25l1.08,0.24l1.08,0.24l1.08,0.25l1.09,0.24l1.08,0.24l1.08,0.23l1.09,0.24l1.08,0.23l1.09,0.23l1.08,0.23l1.09,0.23l1.09,0.23l1.09,0.23l1.08,0.22l1.09,0.22l1.09,0.22l1.09,0.22l1.09,0.22l1.09,0.21l1.1,0.22l1.09,0.21l1.09,0.21l1.09,0.21l1.1,0.21l1.09,0.2l1.1,0.21l1.1,0.2l1.09,0.2l1.1,0.2l1.1,0.19l1.09,0.2l1.1,0.19l1.1,0.2l1.1,0.19l1.1,0.19l1.11,0.18l1.1,0.19l1.1,0.18l1.1,0.18l1.11,0.18l1.1,0.18l1.11,0.18l1.1,0.17l1.11,0.18l1.1,0.17l1.11,0.17l1.11,0.17l1.1,0.17l1.11,0.16l1.11,0.17l1.11,0.16l1.11,0.16l1.11,0.16l1.11,0.15l1.11,0.16l1.12,0.15l1.11,0.15l1.11,0.15l1.12,0.15l1.11,0.15l1.12,0.14l1.11,0.14l1.12,0.14l1.12,0.14l1.11,0.14l1.12,0.14l1.12,0.13l1.12,0.13l1.12,0.13l1.12,0.13l1.12,0.13l1.12,0.13l1.12,0.12l1.12,0.12l1.12,0.12l1.13,0.12l1.12,0.12l1.12,0.11l1.13,0.12l1.12,0.11l1.13,0.11l1.12,0.11l1.13,0.1l1.13,0.11l1.13,0.1l1.12,0.1l1.13,0.1l1.13,0.1l1.13,0.09l1.13,0.1l1.13,0.09l1.13,0.09l1.13,0.09l1.14,0.09l1.13,0.08l1.13,0.09l1.13,0.08l1.14,0.08l1.13,0.08l1.14,0.07l1.13,0.08l1.14,0.07l1.13,0.07l1.14,0.07l1.14,0.07l1.14,0.07l1.13,0.06l1.14,0.06l1.14,0.06l1.14,0.06l1.14,0.06l1.14,0.05l1.14,0.06l1.15,0.05l1.14,0.05l1.14,0.05l1.14,0.04l1.15,0.05l1.14,0.04l1.14,0.04l1.15,0.04l1.14,0.04l1.15,0.03l1.14,0.04l1.15,0.03l1.15,0.03l1.15,0.03l1.14,0.02l1.15,0.03l1.15,0.02l1.15,0.02l1.15,0.02l1.15,0.02l1.15,0.01l1.15,0.02l1.15,0.01l1.16,0.01l1.15,0.01l1.15,0l1.15,0.01l1.16,0l1.15,0l1.15,0l1.16,0l1.15,-0.01l1.15,0l1.15,-0.01l1.16,-0.01l1.15,-0.01l1.15,-0.02l1.15,-0.01l1.15,-0.02l1.15,-0.02l1.15,-0.02l1.15,-0.02l1.15,-0.03l1.14,-0.02l1.15,-0.03l1.15,-0.03l1.15,-0.03l1.14,-0.04l1.15,-0.03l1.14,-0.04l1.15,-0.04l1.14,-0.04l1.14,-0.04l1.15,-0.05l1.14,-0.04l1.14,-0.05l1.15,-0.05l1.14,-0.05l1.14,-0.06l1.14,-0.05l1.14,-0.06l1.14,-0.06l1.14,-0.06l1.14,-0.06l1.13,-0.06l1.14,-0.07l1.14,-0.07l1.14,-0.07l1.13,-0.07l1.14,-0.07l1.13,-0.08l1.14,-0.07l1.13,-0.08l1.14,-0.08l1.13,-0.08l1.13,-0.09l1.14,-0.08l1.13,-0.09l1.13,-0.09l1.13,-0.09l1.13,-0.09l1.13,-0.1l1.13,-0.09l1.13,-0.1l1.13,-0.1l1.12,-0.1l1.13,-0.1l1.13,-0.11l1.13,-0.1l1.12,-0.11l1.13,-0.11l1.12,-0.11l1.13,-0.12l1.12,-0.11l1.12,-0.12l1.13,-0.12l1.12,-0.12l1.12,-0.12l1.12,-0.12l1.12,-0.13l1.12,-0.13l1.12,-0.13l1.12,-0.13l1.12,-0.13l1.12,-0.13l1.12,-0.14l1.12,-0.14l1.11,-0.14l1.12,-0.14l1.11,-0.14l1.12,-0.14l1.11,-0.15l1.12,-0.15l1.11,-0.15l1.11,-0.15l1.12,-0.15l1.11,-0.16l1.11,-0.15l1.11,-0.16l1.11,-0.16l1.11,-0.16l1.11,-0.17l1.11,-0.16l1.1,-0.17l1.11,-0.17l1.11,-0.17l1.1,-0.17l1.11,-0.18l1.1,-0.17l1.11,-0.18l1.1,-0.18l1.11,-0.18l1.1,-0.18l1.1,-0.18l1.1,-0.19l1.1,-0.18l1.11,-0.19l1.1,-0.19l1.1,-0.2l1.09,-0.19l1.1,-0.2l1.1,-0.19l1.1,-0.2l1.09,-0.2l1.1,-0.2l1.1,-0.21l1.09,-0.2l1.1,-0.21l1.09,-0.21l1.09,-0.21l1.09,-0.21l1.1,-0.22l1.09,-0.21l1.09,-0.22l1.09,-0.22l1.09,-0.22l1.09,-0.22l1.09,-0.22l1.08,-0.23l1.09,-0.23l1.09,-0.23l1.08,-0.23l1.09,-0.23l1.08,-0.23l1.09,-0.24l1.08,-0.23l1.08,-0.24l1.09,-0.24l1.08,-0.25l1.08,-0.24l1.08,-0.24l1.08,-0.25l1.08,-0.25l1.08,-0.25l1.07,-0.25l1.08,-0.25l1.08,-0.26l1.07,-0.26l1.08,-0.25l1.07,-0.27l1.08,-0.26l1.07,-0.26l1.07,-0.26l1.08,-0.27l1.07,-0.27l1.07,-0.27l1.07,-0.27l1.07,-0.27l1.07,-0.28l1.07,-0.27l1.06,-0.28l1.07,-0.28l1.07,-0.28l1.06,-0.28l1.07,-0.29l1.06,-0.28l1.07,-0.29l1.06,-0.29l1.06,-0.29l1.06,-0.29l1.06,-0.3l1.07,-0.29l1.06,-0.3l1.06,-0.3l1.05,-0.3l1.06,-0.3l1.06,-0.3l1.06,-0.3l1.05,-0.31l1.06,-0.31l1.05,-0.31l1.06,-0.31l1.05,-0.31l1.05,-0.32l1.05,-0.31l1.05,-0.32l1.05,-0.32l1.05,-0.32l1.05,-0.32l1.05,-0.33l1.05,-0.32l1.05,-0.33l1.04,-0.33l1.05,-0.33l1.04,-0.33l1.05,-0.33l1.04,-0.34l1.04,-0.33l1.05,-0.34l1.04,-0.34l1.04,-0.34l1.04,-0.34l1.04,-0.35l1.04,-0.34l1.04,-0.35l1.03,-0.35l1.04,-0.35l1.04,-0.35l1.03,-0.35l1.04,-0.36l1.03,-0.35l1.03,-0.36l1.03,-0.36l1.03,-0.36l1.04,-0.37l1.03,-0.36l1.03,-0.37l1.02,-0.36l1.03,-0.37l1.03,-0.37l1.03,-0.37l1.02,-0.37l1.03,-0.38l1.02,-0.38l1.03,-0.37l1.02,-0.38l1.02,-0.38l1.02,-0.39l1.02,-0.38l1.02,-0.39l1.02,-0.38l1.02,-0.39l1.02,-0.39l1.01,-0.39l1.02,-0.39l1.02,-0.4l1.01,-0.4l1.01,-0.39l1.02,-0.4l1.01,-0.4l1.01,-0.4l1.01,-0.41l1.01,-0.4l1.01,-0.41l1.01,-0.41l1.01,-0.41l1.01,-0.41l1,-0.41l1.01,-0.41l1,-0.42l1.01,-0.42l1,-0.41l1,-0.42l1,-0.42l1.01,-0.43l1,-0.42l1,-0.43l0.99,-0.43l1,-0.42l1,-0.43l1,-0.44l0.99,-0.43l1,-0.43l0.99,-0.44l0.99,-0.44l1,-0.44l0.99,-0.44l0.99,-0.44l0.99,-0.44l0.99,-0.45l0.99,-0.44l0.98,-0.45l0.99,-0.45l0.99,-0.45l0.98,-0.45l0.98,-0.46l0.99,-0.45l0.98,-0.46l0.98,-0.45l0.98,-0.46l0.99,-0.47l0.97,-0.46l0.98,-0.46l0.98,-0.47l0.98,-0.46l0.97,-0.47l0.98,-0.47l0.97,-0.47l0.98,-0.47l0.97,-0.48l0.97,-0.47l0.98,-0.48l0.97,-0.48l0.97,-0.48l0.96,-0.48l0.97,-0.48l0.97,-0.48l0.96,-0.49l0.97,-0.48l0.97,-0.49l0.96,-0.49l0.96,-0.49l0.96,-0.5l0.97,-0.49l0.96,-0.49l0.96,-0.5l0.96,-0.5l0.95,-0.5l0.96,-0.5l0.96,-0.5l0.95,-0.5l0.96,-0.51l0.95,-0.5l0.95,-0.51l0.95,-0.51l0.96,-0.51l0.95,-0.51l0.95,-0.52l0.95,-0.51l0.94,-0.52l0.95,-0.51l0.95,-0.52l0.94,-0.52l0.95,-0.52l0.94,-0.53l0.94,-0.52l0.94,-0.53l0.94,-0.53l0.94,-0.52l0.94,-0.53l0.94,-0.53l0.94,-0.54l0.93,-0.53l0.94,-0.54l0.93,-0.53l0.94,-0.54l0.93,-0.54l0.93,-0.54l0.93,-0.54l0.93,-0.55l0.93,-0.54l0.93,-0.55l0.93,-0.55l0.92,-0.55l0.93,-0.55l0.93,-0.55l0.92,-0.55l0.92,-0.56l0.92,-0.55l0.92,-0.56l0.93,-0.56l0.92,-0.56l0.91,-0.56l0.92,-0.56l0.92,-0.56l0.91,-0.57l0.92,-0.57l0.91,-0.56l0.91,-0.57l0.92,-0.57l0.91,-0.58l0.91,-0.57l0.91,-0.57l0.91,-0.58l0.9,-0.58l0.91,-0.57l0.91,-0.58l0.9,-0.59l0.9,-0.58l0.91,-0.58l0.9,-0.59l0.9,-0.58l0.9,-0.59l0.9,-0.59l0.9,-0.59l0.89,-0.59l0.9,-0.6l0.9,-0.59l0.89,-0.6l0.89,-0.59l0.9,-0.6l0.89,-0.6l0.89,-0.6l0.89,-0.6l0.89,-0.61l0.88,-0.6l0.89,-0.61l0.89,-0.61l0.88,-0.6l0.88,-0.61l0.89,-0.62l0.88,-0.61l0.88,-0.61l0.88,-0.62l0.88,-0.61l0.88,-0.62l0.87,-0.62l0.88,-0.62l0.88,-0.62l0.87,-0.62l0.87,-0.63l0.88,-0.62l0.87,-0.63l0.87,-0.63l0.87,-0.63l0.86,-0.63l0.87,-0.63l0.87,-0.63l0.86,-0.64l0.87,-0.63l0.86,-0.64l0.86,-0.64l0.87,-0.64l0.86,-0.64l0.86,-0.64l0.85,-0.64l0.86,-0.65l0.86,-0.64l0.85,-0.65l0.86,-0.65l0.85,-0.65l0.85,-0.65l0.85,-0.65l0.86,-0.65l0.84,-0.66l0.85,-0.65l0.85,-0.66l0.85,-0.66l0.84,-0.66l0.85,-0.66l0.84,-0.66l0.84,-0.66l0.84,-0.67l0.84,-0.66l0.84,-0.67l0.84,-0.67l0.84,-0.67l0.83,-0.67l0.84,-0.67l0.83,-0.67l0.84,-0.68l0.83,-0.67l0.83,-0.68l0.83,-0.68l0.83,-0.67l0.83,-0.69l0.82,-0.68l0.83,-0.68l0.82,-0.68l0.83,-0.69l0.82,-0.68l0.82,-0.69l0.82,-0.69l0.82,-0.69l0.82,-0.69l0.82,-0.7l0.82,-0.69l0.81,-0.69l0.81,-0.7l0.82,-0.7l0.81,-0.7l0.81,-0.69l0.81,-0.7l0.81,-0.71l0.81,-0.7l0.81,-0.7l0.8,-0.71l0.8,-0.71l0.81,-0.7l0.8,-0.71l0.8,-0.71l0.8,-0.72l0.8,-0.71l0.8,-0.71l0.8,-0.72l0.8,-0.71l0.79,-0.72l0.79,-0.72l0.8,-0.72l0.79,-0.72l0.79,-0.72l0.79,-0.72l0.79,-0.73l0.79,-0.73l0.78,-0.72l0.79,-0.73l0.78,-0.73l0.79,-0.73l0.78,-0.73l0.78,-0.73l0.78,-0.74l0.78,-0.73l0.77,-0.74l0.78,-0.73l0.78,-0.74l0.77,-0.74l0.77,-0.74l0.78,-0.74l0.77,-0.75l0.77,-0.74l0.77,-0.75l0.76,-0.74l0.77,-0.75l0.76,-0.75l0.77,-0.75l0.76,-0.75l0.76,-0.75l0.77,-0.75l0.76,-0.76l0.76,-0.75l0.75,-0.76l0.76,-0.76l0.75,-0.76l0.76,-0.76l0.75,-0.76l0.75,-0.76l0.75,-0.76l0.75,-0.77l0.75,-0.76l0.75,-0.77l0.75,-0.77l0.74,-0.76l0.75,-0.77l0.74,-0.78l0.74,-0.77l0.74,-0.77l0.74,-0.78l0.74,-0.77l0.73,-0.78l0.74,-0.77l0.74,-0.78l0.73,-0.78l0.73,-0.78l0.73,-0.79l0.73,-0.78l0.73,-0.78l0.73,-0.79l0.73,-0.79l0.72,-0.78l0.73,-0.79l0.72,-0.79l0.72,-0.79l0.72,-0.79l0.72,-0.8l0.72,-0.79l0.72,-0.8l0.72,-0.79l0.71,-0.8l0.71,-0.8l0.72,-0.8l0.71,-0.8l0.71,-0.8l0.71,-0.8l0.71,-0.81l0.7,-0.8l0.71,-0.81l0.7,-0.8l0.71,-0.81l0.7,-0.81l0.7,-0.81l0.7,-0.81l0.7,-0.81l0.69,-0.82l0.7,-0.81l0.69,-0.82l0.7,-0.81l0.69,-0.82l0.69,-0.82l0.69,-0.82l0.69,-0.82l0.69,-0.82l0.68,-0.83l0.69,-0.82l0.68,-0.82l0.69,-0.83l0.68,-0.83l0.68,-0.82l0.68,-0.83l0.67,-0.83l0.68,-0.83l0.68,-0.84l0.67,-0.83l0.67,-0.83l0.67,-0.84l0.68,-0.83l0.66,-0.84l0.67,-0.84l0.67,-0.84l0.67,-0.84l0.66,-0.84l0.66,-0.84l0.66,-0.85l0.66,-0.84l0.66,-0.85l0.66,-0.84l0.66,-0.85l0.66,-0.85l0.65,-0.85l0.65,-0.85l0.65,-0.85l0.65,-0.85l0.65,-0.85l0.65,-0.86l0.65,-0.85l0.65,-0.86l0.64,-0.86l0.64,-0.86l0.64,-0.86l0.65,-0.86l0.63,-0.86l0.64,-0.86l0.64,-0.86l0.64,-0.87l0.63,-0.86l0.63,-0.87l0.63,-0.87l0.63,-0.87l0.63,-0.86l0.63,-0.88l0.63,-0.87l0.62,-0.87l0.63,-0.87l0.62,-0.88l0.62,-0.87l0.62,-0.88l0.62,-0.87l0.62,-0.88l0.62,-0.88l0.61,-0.88l0.62,-0.88l0.61,-0.88l0.61,-0.89l0.61,-0.88l0.61,-0.89l0.6,-0.88l0.61,-0.89l0.61,-0.89l0.6,-0.88l0.6,-0.89l0.6,-0.89l0.6,-0.9l0.6,-0.89l0.6,-0.89l0.59,-0.9l0.6,-0.89l0.59,-0.9l0.59,-0.9l0.59,-0.89l0.59,-0.9l0.59,-0.9l0.59,-0.9l0.58,-0.91l0.58,-0.9l0.59,-0.9l0.58,-0.91l0.58,-0.9l0.58,-0.91l0.57,-0.91l0.58,-0.9l0.57,-0.91l0.58,-0.91l0.57,-0.91l0.57,-0.92l0.57,-0.91l0.57,-0.91l0.56,-0.92l0.57,-0.91l0.56,-0.92l0.56,-0.92l0.57,-0.92l0.56,-0.92l0.55,-0.92l0.56,-0.92l0.56,-0.92l0.55,-0.92l0.55,-0.93l0.56,-0.92l0.55,-0.93l0.54,-0.92l0.55,-0.93l0.55,-0.93l0.54,-0.93l0.55,-0.93l0.54,-0.93l0.54,-0.93l0.54,-0.93l0.54,-0.94l0.54,-0.93l0.53,-0.94l0.53,-0.94l0.54,-0.93l0.53,-0.94l0.53,-0.94l0.53,-0.94l0.52,-0.94l0.53,-0.94l0.52,-0.94l0.53,-0.95l0.52,-0.94l0.52,-0.95l0.52,-0.94l0.51,-0.95l0.52,-0.95l0.52,-0.95l0.51,-0.94l0.51,-0.96l0.51,-0.95l0.51,-0.95l0.51,-0.95l0.5,-0.95l0.51,-0.96l0.5,-0.95l0.5,-0.96l0.51,-0.96l0.49,-0.96l0.5,-0.96l0.5,-0.95l0.49,-0.97l0.5,-0.96l0.49,-0.96l0.49,-0.96l0.49,-0.97l0.49,-0.96l0.48,-0.97l0.49,-0.96l0.48,-0.97l0.48,-0.97l0.49,-0.97l0.48,-0.97l0.47,-0.97l0.48,-0.97l0.48,-0.97l0.47,-0.97l0.47,-0.98l0.47,-0.97l0.47,-0.98l0.47,-0.97l0.47,-0.98l0.46,-0.98l0.46,-0.98l0.47,-0.98l0.46,-0.98l0.46,-0.98l0.45,-0.98l0.46,-0.98l0.46,-0.99l0.45,-0.98l0.45,-0.99l0.45,-0.98l0.45,-0.99l0.45,-0.99l0.45,-0.99l0.44,-0.99l0.44,-0.99l0.45,-0.99l0.44,-0.99l0.44,-0.99l0.43,-0.99l0.44,-1l0.43,-0.99l0.44,-1l0.43,-0.99l0.43,-1l0.43,-1l0.42,-1l0.43,-1l0.42,-1l0.43,-1l0.42,-1l0.42,-1l0.42,-1l0.41,-1.01l0.42,-1l0.41,-1.01l0.42,-1.01l0.41,-1l0.4,-1.01l0.41,-1.01l0.41,-1.01l0.4,-1.01l0.41,-1.01l0.4,-1.01l0.4,-1.01l0.4,-1.02l0.4,-1.01l0.39,-1.02l0.4,-1.01l0.39,-1.02l0.39,-1.01l0.39,-1.02l0.39,-1.02l0.39,-1.02l0.38,-1.02l0.38,-1.02l0.39,-1.02l0.38,-1.02l0.38,-1.03l0.38,-1.02l0.37,-1.02l0.38,-1.03l0.37,-1.03l0.37,-1.02l0.37,-1.03l0.37,-1.03l0.37,-1.03l0.36,-1.03l0.37,-1.03l0.36,-1.03l0.36,-1.03l0.36,-1.03l0.36,-1.03l0.35,-1.04l0.36,-1.03l0.35,-1.04l0.35,-1.03l0.35,-1.04l0.35,-1.04l0.35,-1.03l0.34,-1.04l0.35,-1.04l0.34,-1.04l0.34,-1.04l0.34,-1.04l0.34,-1.05l0.34,-1.04l0.33,-1.04l0.33,-1.05l0.33,-1.04l0.34,-1.05l0.32,-1.05l0.33,-1.04l0.33,-1.05l0.32,-1.05l0.32,-1.05l0.32,-1.05l0.32,-1.05l0.32,-1.05l0.31,-1.05l0.32,-1.05l0.31,-1.06l0.31,-1.05l0.31,-1.05l0.31,-1.06l0.31,-1.06l0.3,-1.05l0.31,-1.06l0.3,-1.06l0.3,-1.06l0.3,-1.06l0.29,-1.06l0.3,-1.06l0.29,-1.06l0.29,-1.06l0.29,-1.06l0.29,-1.06l0.29,-1.07l0.29,-1.06l0.28,-1.07l0.28,-1.06l0.28,-1.07l0.28,-1.07l0.28,-1.07l0.27,-1.06l0.28,-1.07l0.27,-1.07l0.27,-1.07l0.27,-1.07l0.27,-1.08l0.27,-1.07l0.26,-1.07l0.27,-1.07l0.26,-1.08l0.26,-1.07l0.26,-1.08l0.25,-1.08l0.26,-1.07l0.25,-1.08l0.25,-1.08l0.25,-1.08l0.25,-1.07l0.25,-1.08l0.24,-1.09l0.25,-1.08l0.24,-1.08l0.24,-1.08l0.24,-1.08l0.23,-1.09l0.24,-1.08l0.23,-1.08l0.24,-1.09l0.23,-1.09l0.23,-1.08l0.22,-1.09l0.23,-1.09l0.22,-1.08l0.22,-1.09l0.22,-1.09l0.22,-1.09l0.22,-1.1l0.22,-1.09l0.21,-1.09l0.21,-1.09l0.21,-1.09l0.21,-1.1l0.21,-1.09l0.2,-1.1l0.21,-1.09l0.2,-1.1l0.2,-1.09l0.2,-1.1l0.2,-1.1l0.19,-1.1l0.2,-1.1l0.19,-1.1l0.19,-1.1l0.19,-1.1l0.18,-1.1l0.19,-1.1l0.18,-1.1l0.19,-1.11l0.18,-1.1l0.17,-1.1l0.18,-1.11l0.18,-1.1l0.17,-1.11l0.17,-1.1l0.17,-1.11l0.17,-1.11l0.17,-1.11l0.16,-1.1l0.17,-1.11l0.16,-1.11l0.16,-1.11l0.16,-1.11l0.15,-1.11l0.16,-1.12l0.15,-1.11l0.15,-1.11l0.15,-1.12l0.15,-1.11l0.15,-1.11l0.14,-1.12l0.14,-1.11l0.15,-1.12l0.14,-1.12l0.13,-1.11l0.14,-1.12l0.13,-1.12l0.14,-1.12l0.13,-1.12l0.12,-1.12l0.13,-1.12l0.13,-1.12l0.12,-1.12l0.12,-1.12l0.13,-1.12l0.11,-1.13l0.12,-1.12l0.12,-1.13l0.11,-1.12l0.11,-1.13l0.11,-1.12l0.11,-1.13l0.1,-1.12l0.11,-1.13l0.1,-1.13l0.1,-1.13l0.1,-1.12l0.1,-1.13l0.1,-1.13l0.09,-1.13l0.09,-1.13l0.09,-1.13l0.09,-1.13l0.09,-1.14l0.09,-1.13l0.08,-1.13l0.08,-1.14l0.08,-1.13l0.08,-1.13l0.08,-1.14l0.07,-1.13l0.07,-1.14l0.08,-1.14l0.07,-1.13l0.06,-1.14l0.07,-1.14l0.06,-1.14l0.07,-1.13l0.05,-1.14l0.06,-1.14l0.06,-1.14l0.06,-1.15l0.05,-1.14l0.05,-1.14l0.05,-1.14l0.05,-1.14l0.05,-1.14l0.04,-1.15l0.04,-1.14l0.04,-1.15l0.04,-1.14l0.04,-1.15l0.03,-1.14l0.04,-1.15l0.03,-1.14l0.03,-1.15l0.03,-1.15l0.02,-1.15l0.03,-1.14l0.02,-1.15l0.02,-1.15l0.02,-1.15l0.02,-1.15l0.02,-1.15l0.01,-1.15l0.01,-1.16l0.01,-1.15l0.01,-1.15l0,-1.15l0.01,-1.15l0,-1.16l0,-1.15l0,-1.16l0,-1.15l-0.01,-1.15l0,-1.16l-0.01,-1.15l-0.01,-1.15l-0.01,-1.15l-0.01,-1.15l-0.02,-1.15l-0.02,-1.15l-0.02,-1.15l-0.02,-1.15l-0.02,-1.15l-0.03,-1.15l-0.02,-1.15l-0.03,-1.14l-0.03,-1.15l-0.03,-1.15l-0.04,-1.14l-0.03,-1.15l-0.04,-1.14l-0.04,-1.15l-0.04,-1.14l-0.04,-1.15l-0.04,-1.14l-0.05,-1.14l-0.05,-1.14l-0.05,-1.15l-0.05,-1.14l-0.05,-1.14l-0.06,-1.14l-0.06,-1.14l-0.06,-1.14l-0.05,-1.14l-0.07,-1.14l-0.06,-1.14l-0.07,-1.13l-0.06,-1.14l-0.07,-1.14l-0.08,-1.13l-0.07,-1.14l-0.07,-1.14l-0.08,-1.13l-0.08,-1.13l-0.08,-1.14l-0.08,-1.13l-0.08,-1.13l-0.09,-1.14l-0.09,-1.13l-0.09,-1.13l-0.09,-1.13l-0.09,-1.13l-0.09,-1.13l-0.1,-1.13l-0.1,-1.13l-0.1,-1.13l-0.1,-1.13l-0.1,-1.12l-0.11,-1.13l-0.1,-1.13l-0.11,-1.12l-0.11,-1.13l-0.11,-1.12l-0.11,-1.13l-0.12,-1.12l-0.12,-1.13l-0.11,-1.12l-0.13,-1.12l-0.12,-1.12l-0.12,-1.12l-0.13,-1.12l-0.13,-1.13l-0.12,-1.12l-0.13,-1.11l-0.14,-1.12l-0.13,-1.12l-0.14,-1.12l-0.13,-1.12l-0.14,-1.11l-0.15,-1.12l-0.14,-1.11l-0.14,-1.12l-0.15,-1.11l-0.15,-1.12l-0.15,-1.11l-0.15,-1.11l-0.15,-1.12l-0.16,-1.11l-0.15,-1.11l-0.16,-1.11l-0.16,-1.11l-0.16,-1.11l-0.17,-1.11l-0.16,-1.11l-0.17,-1.11l-0.17,-1.1l-0.17,-1.11l-0.17,-1.11l-0.17,-1.1l-0.18,-1.11l-0.18,-1.1l-0.17,-1.11l-0.18,-1.1l-0.19,-1.1l-0.18,-1.11l-0.19,-1.1l-0.18,-1.1l-0.19,-1.1l-0.19,-1.1l-0.19,-1.1l-0.2,-1.1l-0.19,-1.09l-0.2,-1.1l-0.2,-1.1l-0.2,-1.1l-0.2,-1.09l-0.21,-1.1l-0.2,-1.09l-0.21,-1.1l-0.21,-1.09l-0.21,-1.09l-0.21,-1.1l-0.21,-1.09l-0.22,-1.09l-0.22,-1.09l-0.22,-1.09l-0.22,-1.09l-0.22,-1.09l-0.22,-1.09l-0.23,-1.08l-0.22,-1.09l-0.23,-1.09l-0.23,-1.08l-0.24,-1.09l-0.23,-1.08l-0.24,-1.09l-0.23,-1.08l-0.24,-1.08l-0.24,-1.09l-0.24,-1.08l-0.25,-1.08l-0.24,-1.08l-0.25,-1.08l-0.25,-1.08l-0.25,-1.08l-0.25,-1.07l-0.25,-1.08l-0.26,-1.08l-0.25,-1.07l-0.26,-1.08l-0.26,-1.07l-0.26,-1.08l-0.27,-1.07l-0.26,-1.08l-0.27,-1.07l-0.27,-1.07l-0.27,-1.07l-0.27,-1.07l-0.27,-1.07l-0.28,-1.07l-0.27,-1.07l-0.28,-1.07l-0.28,-1.06l-0.28,-1.07l-0.28,-1.07l-0.28,-1.06l-0.29,-1.06l-0.29,-1.07l-0.29,-1.06l-0.29,-1.06l-0.29,-1.07l-0.29,-1.06l-0.3,-1.06l-0.29,-1.06l-0.3,-1.06l-0.3,-1.06l-0.3,-1.05l-0.31,-1.06l-0.3,-1.06l-0.31,-1.05l-0.31,-1.06l-0.31,-1.05l-0.31,-1.06l-0.31,-1.05l-0.32,-1.05l-0.31,-1.06l-0.32,-1.05l-0.32,-1.05l-0.32,-1.05l-0.32,-1.05l-0.32,-1.04l-0.33,-1.05l-0.33,-1.05l-0.32,-1.04l-0.34,-1.05l-0.33,-1.05l-0.33,-1.04l-0.33,-1.04l-0.34,-1.05l-0.34,-1.04l-0.34,-1.04l-0.34,-1.04l-0.34,-1.04l-0.35,-1.04l-0.34,-1.04l-0.35,-1.04l-0.35,-1.03l-0.35,-1.04l-0.35,-1.04l-0.35,-1.03l-0.36,-1.04l-0.35,-1.03l-0.36,-1.03l-0.36,-1.04l-0.36,-1.03l-0.36,-1.03l-0.37,-1.03l-0.36,-1.03l-0.37,-1.03l-0.37,-1.02l-0.37,-1.03l-0.37,-1.03l-0.37,-1.02l-0.38,-1.03l-0.37,-1.02l-0.38,-1.03l-0.38,-1.02l-0.38,-1.02l-0.39,-1.02l-0.38,-1.02l-0.38,-1.02l-0.39,-1.02l-0.39,-1.02l-0.39,-1.02l-0.39,-1.02l-0.39,-1.01l-0.4,-1.02l-0.39,-1.01l-0.4,-1.02l-0.4,-1.01l-0.4,-1.01l-0.4,-1.01l-0.41,-1.01l-0.4,-1.01l-0.41,-1.01l-0.41,-1.01l-0.4,-1.01l-0.41,-1.01l-0.42,-1l-0.41,-1.01l-0.42,-1l-0.41,-1.01l-0.42,-1l-0.42,-1l-0.42,-1.01l-0.43,-1l-0.42,-1l-0.43,-1l-0.42,-1l-0.43,-0.99l-0.43,-1l-0.43,-1l-0.44,-0.99l-0.43,-1l-0.44,-0.99l-0.43,-0.99l-0.44,-1l-0.44,-0.99l-0.45,-0.99l-0.44,-0.99l-0.44,-0.99l-0.45,-0.99l-0.45,-0.98l-0.45,-0.99l-0.45,-0.99l-0.45,-0.98l-0.45,-0.99l-0.46,-0.98l-0.46,-0.98l-0.45,-0.98l-0.46,-0.99l-0.46,-0.98l-0.47,-0.98l-0.46,-0.97l-0.46,-0.98l-0.47,-0.98l-0.47,-0.98l-0.47,-0.97l-0.47,-0.98l-0.47,-0.97l-0.47,-0.97l-0.48,-0.97l-0.48,-0.98l-0.47,-0.97l-0.48,-0.97l-0.49,-0.97l-0.48,-0.96l-0.48,-0.97l-0.49,-0.97l-0.48,-0.96l-0.49,-0.97l-0.49,-0.96l-0.49,-0.97l-0.49,-0.96l-0.5,-0.96l-0.49,-0.96l-0.5,-0.96l-0.5,-0.96l-0.49,-0.96l-0.51,-0.95l-0.5,-0.96l-0.5,-0.95l-0.51,-0.96l-0.5,-0.95l-0.51,-0.96l-0.51,-0.95l-0.51,-0.95l-0.51,-0.95l-0.51,-0.95l-0.52,-0.95l-0.52,-0.94l-0.51,-0.95l-0.52,-0.95l-0.52,-0.94l-0.52,-0.95l-0.53,-0.94l-0.52,-0.94l-0.53,-0.94l-0.52,-0.95l-0.53,-0.94l-0.53,-0.93l-0.53,-0.94l-0.54,-0.94l-0.53,-0.94l-0.53,-0.93l-0.54,-0.94l-0.54,-0.93l-0.54,-0.93l-0.54,-0.93l-0.54,-0.93l-0.55,-0.94l-0.54,-0.92l-0.55,-0.93l-0.55,-0.93l-0.54,-0.93l-0.55,-0.92l-0.56,-0.93l-0.55,-0.92l-0.55,-0.92l-0.56,-0.93l-0.56,-0.92l-0.55,-0.92l-0.56,-0.92l-0.57,-0.92l-0.56,-0.91l-0.56,-0.92l-0.57,-0.92l-0.56,-0.91l-0.57,-0.91l-0.57,-0.92l-0.57,-0.91l-0.57,-0.91l-0.58,-0.91l-0.57,-0.91l-0.58,-0.91l-0.57,-0.9l-0.58,-0.91l-0.58,-0.91l-0.58,-0.9l-0.59,-0.91l-0.58,-0.9l-0.58,-0.9l-0.59,-0.9l-0.59,-0.9l-0.59,-0.9l-0.59,-0.9l-0.59,-0.9l-0.59,-0.89l-0.6,-0.9l-0.59,-0.89l-0.6,-0.89l-0.6,-0.9l-0.6,-0.89l-0.6,-0.89l-0.6,-0.89l-0.6,-0.89l-0.61,-0.89l-0.61,-0.88l-0.6,-0.89l-0.61,-0.88l-0.61,-0.89l-0.61,-0.88l-0.61,-0.88l-0.62,-0.88l-0.61,-0.88l-0.62,-0.88l-0.62,-0.88l-0.62,-0.88l-0.62,-0.87l-0.62,-0.88l-0.62,-0.87l-0.63,-0.88l-0.62,-0.87l-0.63,-0.87l-0.63,-0.87l-0.63,-0.87l-0.63,-0.87l-0.63,-0.86l-0.63,-0.87l-0.63,-0.86l-0.64,-0.87l-0.64,-0.86l-0.64,-0.87l-0.63,-0.86l-0.65,-0.86l-0.64,-0.86l-0.64,-0.86l-0.64,-0.85l-0.65,-0.86l-0.65,-0.85l-0.65,-0.86l-0.65,-0.85l-0.65,-0.85l-0.65,-0.86l-0.65,-0.85l-0.65,-0.85l-0.66,-0.84l-0.66,-0.85l-0.66,-0.85l-0.66,-0.84l-0.66,-0.85l-0.66,-0.84l-0.66,-0.84l-0.66,-0.84l-0.67,-0.85l-0.67,-0.83l-0.67,-0.84l-0.66,-0.84l-0.68,-0.84l-0.67,-0.83l-0.67,-0.84l-0.67,-0.83l-0.68,-0.83l-0.68,-0.83l-0.67,-0.83l-0.68,-0.83l-0.68,-0.83l-0.68,-0.82l-0.69,-0.83l-0.68,-0.83l-0.69,-0.82l-0.68,-0.82l-0.69,-0.82l-0.69,-0.83l-0.69,-0.81l-0.69,-0.82l-0.69,-0.82l-0.7,-0.82l-0.69,-0.81l-0.7,-0.82l-0.69,-0.81l-0.7,-0.81l-0.7,-0.81l-0.7,-0.81l-0.7,-0.81l-0.71,-0.81l-0.7,-0.81l-0.71,-0.8l-0.7,-0.81l-0.71,-0.8l-0.71,-0.8l-0.71,-0.8l-0.71,-0.81l-0.72,-0.8l-0.71,-0.79l-0.71,-0.8l-0.72,-0.8l-0.72,-0.79l-0.72,-0.8l-0.72,-0.79l-0.72,-0.79l-0.72,-0.79l-0.72,-0.79l-0.73,-0.79l-0.72,-0.79l-0.73,-0.78l-0.73,-0.79l-0.73,-0.78l-0.73,-0.79l-0.73,-0.78l-0.73,-0.78l-0.73,-0.78l-0.74,-0.78l-0.74,-0.78l-0.73,-0.77l-0.74,-0.78l-0.74,-0.77l-0.74,-0.78l-0.74,-0.77l-0.74,-0.77l-0.75,-0.77l-0.74,-0.77l-0.75,-0.77l-0.75,-0.76l-0.75,-0.77l-0.75,-0.76l-0.75,-0.76l-0.75,-0.77l-0.75,-0.76l-0.76,-0.76l-0.75,-0.76l-0.76,-0.75l-0.75,-0.76l-0.76,-0.76l-0.76,-0.75l-0.77,-0.75l-0.76,-0.75l-0.76,-0.76l-0.77,-0.75l-0.76,-0.74l-0.77,-0.75l-0.76,-0.75l-0.77,-0.74l-0.77,-0.75l-0.77,-0.74l-0.78,-0.74l-0.77,-0.74l-0.77,-0.74l-0.78,-0.74l-0.78,-0.74l-0.77,-0.73l-0.78,-0.738l-0.78,-0.734l-0.78,-0.732l-0.78,-0.731l-0.79,-0.731l-0.78,-0.729l-0.79,-0.728l-0.78,-0.726l-0.79,-0.726l-0.79,-0.724l-0.79,-0.723l-0.79,-0.722l-0.79,-0.721l-0.8,-0.72l-0.79,-0.718l-0.79,-0.718l-0.8,-0.716l-0.8,-0.715l-0.8,-0.714l-0.8,-0.712l-0.8,-0.712l-0.8,-0.71l-0.8,-0.709l-0.81,-0.708l-0.8,-0.707l-0.8,-0.705l-0.81,-0.705l-0.81,-0.703l-0.81,-0.702l-0.81,-0.701l-0.81,-0.699l-0.81,-0.699l-0.82,-0.697l-0.81,-0.696l-0.81,-0.694l-0.82,-0.694l-0.82,-0.692l-0.82,-0.692l-0.82,-0.69l-0.82,-0.688l-0.82,-0.688l-0.82,-0.686l-0.83,-0.685l-0.82,-0.684l-0.83,-0.683l-0.82,-0.681l-0.83,-0.681l-0.83,-0.679l-0.83,-0.678l-0.83,-0.676l-0.83,-0.676l-0.84,-0.674l-0.83,-0.673l-0.84,-0.671l-0.83,-0.671l-0.84,-0.669l-0.84,-0.668l-0.84,-0.667l-0.84,-0.666l-0.84,-0.664l-0.84,-0.663l-0.84,-0.662l-0.85,-0.661l-0.84,-0.659l-0.85,-0.658l-0.85,-0.657l-0.85,-0.656l-0.84,-0.654l-0.86,-0.653l-0.85,-0.652l-0.85,-0.651l-0.85,-0.649l-0.86,-0.648l-0.85,-0.647l-0.86,-0.646l-0.86,-0.644l-0.85,-0.644l-0.86,-0.641l-0.86,-0.641l-0.87,-0.639l-0.86,-0.639l-0.86,-0.636l-0.87,-0.636l-0.86,-0.634l-0.87,-0.633l-0.87,-0.632l-0.86,-0.631l-0.87,-0.629l-0.87,-0.628l-0.87,-0.626l-0.88,-0.626l-0.87,-0.624l-0.87,-0.623l-0.88,-0.621l-0.88,-0.621l-0.87,-0.619l-0.88,-0.617l-0.88,-0.617l-0.88,-0.615l-0.88,-0.614l-0.88,-0.612l-0.89,-0.612l-0.88,-0.609l-0.88,-0.609l-0.89,-0.608l-0.89,-0.606l-0.88,-0.604l-0.89,-0.604l-0.89,-0.602l-0.89,-0.601l-0.89,-0.6l-0.9,-0.598l-0.89,-0.597l-0.89,-0.595l-0.9,-0.595l-0.9,-0.593l-0.89,-0.591l-0.9,-0.591l-0.9,-0.589l-0.9,-0.588l-0.9,-0.586l-0.9,-0.585l-0.91,-0.584l-0.9,-0.583l-0.9,-0.581l-0.91,-0.58l-0.91,-0.578l-0.9,-0.577l-0.91,-0.576l-0.91,-0.575l-0.91,-0.573l-0.91,-0.572l-0.92,-0.57l-0.91,-0.57l-0.91,-0.567l-0.92,-0.567l-0.91,-0.565l-0.92,-0.564l-0.92,-0.562l-0.91,-0.562l-0.92,-0.559l-0.93,-0.559l-0.92,-0.557l-0.92,-0.556l-0.92,-0.554l-0.92,-0.553l-0.93,-0.552l-0.93,-0.55l-0.92,-0.549l-0.93,-0.548l-0.93,-0.546l-0.93,-0.545l-0.93,-0.544l-0.93,-0.542l-0.93,-0.541l-0.93,-0.539l-0.94,-0.538l-0.93,-0.537l-0.94,-0.535l-0.93,-0.534l-0.94,-0.533l-0.94,-0.531l-0.94,-0.53l-0.94,-0.529l-0.94,-0.527l-0.94,-0.525l-0.94,-0.525l-0.94,-0.523l-0.95,-0.521l-0.94,-0.52l-0.95,-0.519l-0.95,-0.518l-0.94,-0.516l-0.95,-0.514l-0.95,-0.514l-0.95,-0.511l-0.96,-0.511l-0.95,-0.509l-0.95,-0.508l-0.95,-0.506l-0.96,-0.505l-0.95,-0.503l-0.96,-0.502l-0.96,-0.501l-0.95,-0.499l-0.96,-0.498l-0.96,-0.496l-0.96,-0.495l-0.97,-0.494l-0.96,-0.492l-0.96,-0.491l-0.96,-0.489l-0.97,-0.488l-0.97,-0.487l-0.96,-0.485l-0.97,-0.484l-0.97,-0.482l-0.96,-0.481l-0.97,-0.479l-0.97,-0.478l-0.98,-0.477l-0.97,-0.475l-0.97,-0.474l-0.98,-0.472l-0.97,-0.471l-0.98,-0.469l-0.97,-0.468l-0.98,-0.467l-0.98,-0.465l-0.98,-0.464l-0.97,-0.462l-0.99,-0.461l-0.98,-0.459l-0.98,-0.458l-0.98,-0.456l-0.99,-0.455l-0.98,-0.454l-0.98,-0.452l-0.99,-0.45l-0.99,-0.45l-0.98,-0.447l-0.99,-0.447l-0.99,-0.444l-0.99,-0.444l-0.99,-0.442l-0.99,-0.44l-1,-0.439l-0.99,-0.438l-0.99,-0.436l-1,-0.434l-0.99,-0.433l-1,-0.432l-1,-0.43l-1,-0.429l-0.99,-0.427l-1,-0.426l-1,-0.424l-1.01,-0.423l-1,-0.421l-1,-0.42l-1,-0.418l-1.01,-0.417l-1,-0.415l-1.01,-0.414l-1,-0.413l-1.01,-0.411l-1.01,-0.409l-1.01,-0.408l-1.01,-0.406l-1.01,-0.405l-1.01,-0.404l-1.01,-0.402l-1.01,-0.4l-1.02,-0.399l-1.01,-0.397l-1.01,-0.396l-1.02,-0.395l-1.02,-0.393l-1.01,-0.391l-1.02,-0.39l-1.02,-0.388l-1.02,-0.387l-1.02,-0.386l-1.02,-0.383l-1.02,-0.383l-1.02,-0.381l-1.02,-0.379l-1.03,-0.378l-1.02,-0.376l-1.03,-0.375l-1.02,-0.373l-1.03,-0.372l-1.03,-0.37l-1.03,-0.368l-1.02,-0.367l-1.03,-0.366l-1.03,-0.364l-1.04,-0.363l-1.03,-0.361l-1.03,-0.359l-1.03,-0.358l-1.03,-0.356l-1.04,-0.355l-1.03,-0.353l-1.04,-0.352l-1.04,-0.35l-1.03,-0.349l-1.04,-0.347l-1.04,-0.345l-1.04,-0.344l-1.04,-0.343l-1.04,-0.341l-1.04,-0.339l-1.05,-0.338l-1.04,-0.336l-1.04,-0.335l-1.05,-0.333l-1.04,-0.332l-1.05,-0.329l-1.04,-0.329l-1.05,-0.327l-1.05,-0.325l-1.05,-0.324l-1.05,-0.322l-1.05,-0.321l-1.05,-0.319l-1.05,-0.317l-1.05,-0.316l-1.05,-0.314l-1.05,-0.313l-1.06,-0.311l-1.05,-0.309l-1.06,-0.308l-1.05,-0.307l-1.06,-0.305l-1.06,-0.303l-1.06,-0.301l-1.05,-0.301l-1.06,-0.298l-1.06,-0.297l-1.07,-0.295l-1.06,-0.294l-1.06,-0.292l-1.06,-0.29l-1.06,-0.289l-1.07,-0.287l-1.06,-0.286l-1.07,-0.284l-1.06,-0.283l-1.07,-0.281l-1.07,-0.279l-1.06,-0.278l-1.07,-0.276l-1.07,-0.274l-1.07,-0.273l-1.07,-0.271l-1.07,-0.27l-1.07,-0.268l-1.08,-0.266l-1.07,-0.265l-1.07,-0.263l-1.08,-0.261l-1.07,-0.26l-1.08,-0.259l-1.07,-0.256l-1.08,-0.255l-1.08,-0.254l-1.07,-0.251l-1.08,-0.25l-1.08,-0.249l-1.08,-0.247l-1.08,-0.245l-1.08,-0.244l-1.08,-0.241l-1.09,-0.241l-1.08,-0.238l-1.08,-0.237l-1.09,-0.236l-1.08,-0.234l-1.09,-0.232l-1.08,-0.23l-1.09,-0.229l-1.09,-0.227l-1.08,-0.225l-1.09,-0.224l-1.09,-0.222l-1.09,-0.221l-1.09,-0.219l-1.09,-0.217l-1.09,-0.216l-1.1,-0.214l-1.09,-0.212l-1.09,-0.21l-1.09,-0.209l-1.1,-0.207l-1.09,-0.206l-1.1,-0.204l-1.1,-0.202l-1.09,-0.201l-1.1,-0.199l-1.1,-0.197l-1.1,-0.195l-1.09,-0.194l-1.1,-0.192l-1.1,-0.191l-1.11,-0.189l-1.1,-0.187l-1.1,-0.185l-1.1,-0.184l-1.1,-0.182l-1.11,-0.18l-1.1,-0.179l-1.11,-0.177l-1.1,-0.175l-1.11,-0.174l-1.1,-0.172l-1.11,-0.17l-1.11,-0.168l-1.1,-0.167l-1.11,-0.165l-1.11,-0.164l-1.11,-0.162l-1.11,-0.16l-1.11,-0.158l-1.11,-0.156l-1.11,-0.155l-1.12,-0.153l-1.11,-0.152l-1.11,-0.15l-1.12,-0.148l-1.11,-0.146l-1.12,-0.145l-1.11,-0.142l-1.12,-0.142l-1.11,-0.139l-1.12,-0.138l-1.12,-0.136l-1.12,-0.134l-1.12,-0.133l-1.12,-0.13l-1.12,-0.129l-1.12,-0.128l-1.12,-0.125l-1.12,-0.124l-1.12,-0.122l-1.12,-0.121l-1.13,-0.118l-1.12,-0.117l-1.12,-0.116l-1.13,-0.113l-1.12,-0.112l-1.13,-0.11l-1.12,-0.108l-1.13,-0.106l-1.13,-0.105l-1.13,-0.103l-1.12,-0.101l-1.13,-0.1l-1.13,-0.097l-1.13,-0.096l-1.13,-0.095l-1.13,-0.092l-1.13,-0.091l-1.13,-0.089l-1.13,-0.087l-1.14,-0.085l-1.13,-0.084l-1.13,-0.082l-1.14,-0.08l-1.13,-0.078l-1.14,-0.076l-1.13,-0.075l-1.14,-0.073l-1.13,-0.071l-1.14,-0.07l-1.14,-0.068l-1.14,-0.065l-1.13,-0.065l-1.14,-0.062l-1.14,-0.06l-1.14,-0.059l-1.14,-0.057l-1.14,-0.055l-1.14,-0.054l-1.14,-0.051l-1.15,-0.05l-1.14,-0.048l-1.14,-0.046l-1.15,-0.045l-1.14,-0.042l-1.14,-0.041l-1.15,-0.039l-1.14,-0.037l-1.15,-0.036l-1.14,-0.034l-1.15,-0.031l-1.15,-0.03l-1.15,-0.029l-1.14,-0.026l-1.15,-0.025l-1.15,-0.022l-1.15,-0.021l-1.15,-0.019l-1.15,-0.018l-1.15,-0.015l-1.15,-0.014l-1.15,-0.012l-1.16,-0.01l-1.15,-0.008l-1.15,-0.006l-1.15,-0.005l-1.16,-0.003l-1.15,-0.001l-1.15,0.001z"/>
    </g>
    <g id="svg_6" transform="matrix(1,0,0,1,-96.4592,-44.5196)">
     <path id="svg_7" fill="none" d="m1656.79,1781.33c-28.25,-51.93 -83.29,-87.2 -146.5,-87.2c-6.93,0 -13.77,0.43 -20.44,1.3c-62.42,-92.36 -168.09,-153.12 -287.85,-153.12c-154.1,0 -284.883,100.62 -330.149,239.67c-24.317,-6.58 -49.887,-10.08 -76.268,-10.08c-50.032,0 -97.147,12.59 -138.342,34.77c-53.515,-100.04 -83.848,-214.33 -83.848,-335.65c0,-393.95 319.836,-713.784 713.787,-713.784c393.95,0 713.78,319.834 713.78,713.784c0,123.82 -31.6,240.32 -87.19,341.86c-48.46,-28.4 -104.87,-44.68 -165.05,-44.68c-31.92,0 -62.79,4.58 -91.93,13.13z"/>
     <clipPath id="_clip1">
      <path id="svg_8" d="m1656.79,1781.33c-28.25,-51.93 -83.29,-87.2 -146.5,-87.2c-6.93,0 -13.77,0.43 -20.44,1.3c-62.42,-92.36 -168.09,-153.12 -287.85,-153.12c-154.1,0 -284.883,100.62 -330.149,239.67c-24.317,-6.58 -49.887,-10.08 -76.268,-10.08c-50.032,0 -97.147,12.59 -138.342,34.77c-53.515,-100.04 -83.848,-214.33 -83.848,-335.65c0,-393.95 319.836,-713.784 713.787,-713.784c393.95,0 713.78,319.834 713.78,713.784c0,123.82 -31.6,240.32 -87.19,341.86c-48.46,-28.4 -104.87,-44.68 -165.05,-44.68c-31.92,0 -62.79,4.58 -91.93,13.13z"/>
     </clipPath>
     <g id="svg_9" clip-path="url(#_clip1)">
      <g id="svg_10" transform="matrix(1,0,0,1,133.559,77.9092)">
       <path id="svg_11" fill="rgb(0,81,205)" d="m1356.29,1617.52c-62.41,-92.36 -168.09,-153.12 -287.85,-153.12c-154.096,0 -284.882,100.62 -330.148,239.67c-24.317,-6.58 -49.887,-10.08 -76.268,-10.08c-50.032,0 -97.147,12.59 -138.342,34.78c-53.514,-100.05 -83.848,-214.34 -83.848,-335.66c0,-393.947 319.836,-713.783 713.786,-713.783c393.95,0 713.78,319.836 713.78,713.783c0,356.42 -261.8,652.18 -603.41,705.27c53.97,-36.88 97.03,-88.59 123.24,-149.23c87.09,-5.39 156.15,-77.84 156.15,-166.28c0,-91.97 -74.67,-166.64 -166.65,-166.64c-6.93,0 -13.77,0.42 -20.44,1.29z"/>
      </g>
      <g id="svg_12" transform="matrix(0.641586,0,0,0.641586,1015.68,420.007)">
       <circle id="svg_13" fill="rgb(235,235,235)" r="510.146" cy="2611.49" cx="1142.55"/>
      </g>
      <g id="svg_14" transform="matrix(1,-1.73472e-17,1.73472e-17,1,248.372,-462.596)">
       <circle id="svg_15" fill="rgb(5,111,238)" r="713.784" cy="1519.02" cx="1390.62"/>
      </g>
      <g id="svg_16" transform="matrix(0.746128,-1.29433e-17,1.29433e-17,0.746128,684.12,-153.571)">
       <circle id="svg_17" fill="rgb(2,192,250)" r="713.784" cy="1519.02" cx="1390.62"/>
      </g>
      <g id="svg_18" transform="matrix(0.388398,-6.73762e-18,6.73762e-18,0.388398,1181.69,413.603)">
       <circle id="svg_19" fill="rgb(0,221,255)" r="713.784" cy="1519.02" cx="1390.62"/>
      </g>
     </g>
    </g>
   </g>
  </g>
 </g>
</svg>